<svg width="1168" height="458" xmlns="http://www.w3.org/2000/svg" xmlns:xlink="http://www.w3.org/1999/xlink" overflow="hidden"><defs><clipPath id="clip0"><rect x="-2" y="7" width="1168" height="458"/></clipPath></defs><g clip-path="url(#clip0)" transform="translate(2 -7)"><rect x="49" y="70" width="1116" height="322" fill="#E7E6E6"/><text font-family="Cambria Math,Cambria Math_MSFontService,sans-serif" font-weight="400" font-size="24" transform="translate(11.0174 161)">𝐼<tspan font-size="18" x="7.76" y="5">𝑛</tspan></text><path d="M408.682 236.625 408.987 236.625C410.823 236.664 412.196 237.203 413.106 238.242 414.016 239.281 414.471 240.929 414.471 243.187 414.471 244.023 414.38 244.972 414.196 246.035 414.012 247.097 413.921 247.808 413.921 248.168 413.921 248.863 414.106 249.427 414.477 249.861 414.848 250.294 415.409 250.527 416.159 250.558L416.159 251.519C415.409 251.55 414.848 251.781 414.477 252.211 414.106 252.64 413.921 253.199 413.921 253.886 413.921 254.246 414.012 254.951 414.196 256.002 414.38 257.052 414.471 257.992 414.471 258.82 414.471 261.164 414.016 262.849 413.106 263.877 412.196 264.904 410.823 265.437 408.987 265.476L408.682 265.476 408.682 264.586 408.858 264.586C409.991 264.586 410.878 264.207 411.518 263.449 412.159 262.691 412.479 261.296 412.479 259.265 412.479 258.57 412.401 257.705 412.245 256.669 412.089 255.634 412.011 254.894 412.011 254.449 412.011 253.597 412.206 252.898 412.596 252.351 412.987 251.804 413.452 251.402 413.991 251.144L413.991 250.933C413.452 250.668 412.987 250.259 412.596 249.709 412.206 249.158 412.011 248.453 412.011 247.593 412.011 247.14 412.089 246.392 412.245 245.349 412.401 244.306 412.479 243.429 412.479 242.718 412.479 240.781 412.159 239.429 411.518 238.664 410.878 237.898 409.991 237.515 408.858 237.515L408.682 237.515ZM383.264 236.625 383.569 236.625 383.569 237.515 383.393 237.515C382.261 237.515 381.374 237.898 380.733 238.664 380.093 239.429 379.772 240.781 379.772 242.718 379.772 243.429 379.85 244.306 380.007 245.349 380.163 246.392 380.241 247.14 380.241 247.593 380.241 248.453 380.046 249.158 379.655 249.709 379.264 250.259 378.8 250.668 378.261 250.933L378.261 251.144C378.8 251.402 379.264 251.804 379.655 252.351 380.046 252.898 380.241 253.597 380.241 254.449 380.241 254.894 380.163 255.634 380.007 256.669 379.85 257.705 379.772 258.57 379.772 259.265 379.772 261.296 380.093 262.691 380.733 263.449 381.374 264.207 382.261 264.586 383.393 264.586L383.569 264.586 383.569 265.476 383.264 265.476C381.428 265.437 380.055 264.904 379.145 263.877 378.235 262.849 377.78 261.164 377.78 258.82 377.78 257.992 377.872 257.052 378.055 256.002 378.239 254.951 378.331 254.246 378.331 253.886 378.331 253.199 378.145 252.64 377.774 252.211 377.403 251.781 376.843 251.55 376.093 251.519L376.093 250.558C376.843 250.527 377.403 250.294 377.774 249.861 378.145 249.427 378.331 248.863 378.331 248.168 378.331 247.808 378.239 247.097 378.055 246.035 377.872 244.972 377.78 244.023 377.78 243.187 377.78 240.929 378.235 239.281 379.145 238.242 380.055 237.203 381.428 236.664 383.264 236.625Z" fill-rule="evenodd"/><text font-family="Cambria Math,Cambria Math_MSFontService,sans-serif" font-weight="400" font-size="24" transform="translate(384.273 258)">𝑧<tspan font-size="18" x="11.08" y="5">𝑛</tspan><tspan font-size="18" x="12.84" y="-9">𝑖</tspan><tspan font-size="18" x="33" y="11">i</tspan><tspan font-size="18" x="38.6667" y="11">≤</tspan><tspan font-size="18" x="49.6667" y="11">𝐷</tspan><tspan font-size="14" x="61.0733" y="15">𝑛</tspan><tspan font-size="24" x="-190.989" y="-214">𝐼</tspan><tspan font-size="18" x="-183.229" y="-209">𝑛</tspan><tspan font-size="18" x="-171.596" y="-209">−</tspan><tspan font-size="18" x="-158.929" y="-209">1</tspan><tspan font-size="18" x="-148.762" y="-209"> </tspan><tspan font-size="24" x="13.8749" y="-112">Δ</tspan><tspan font-size="18" x="28.2082" y="-107">𝑛</tspan></text><rect x="63.5001" y="93.5001" width="304" height="60" stroke="#000000" stroke-width="1.33333" stroke-miterlimit="8" fill="#767171"/><rect x="63.5001" y="201.5" width="304" height="59" stroke="#000000" stroke-width="1.33333" stroke-miterlimit="8" fill="#767171"/><rect x="466.5" y="94.5001" width="303" height="59" stroke="#000000" stroke-width="1.33333" stroke-miterlimit="8" fill="#767171"/><rect x="466.5" y="204.5" width="303" height="59" stroke="#000000" stroke-width="1.33333" stroke-miterlimit="8" fill="#767171"/><rect x="466.5" y="318.5" width="303" height="59" stroke="#000000" stroke-width="1.33333" stroke-miterlimit="8" fill="#767171"/><text font-family="Cambria Math,Cambria Math_MSFontService,sans-serif" font-weight="400" font-size="37" transform="translate(483.357 133)">𝑓𝑖𝑙𝑡𝑒𝑟<tspan font-size="37" x="94.64" y="0"> </tspan><tspan font-size="37" x="102.807" y="0">𝑝𝑟𝑜𝑝𝑜𝑠𝑎𝑙𝑠</tspan><tspan font-size="24" x="142.909" y="51">{</tspan><tspan font-size="24" x="152.243" y="51">ℙ</tspan><tspan font-size="24" x="168.909" y="51">(</tspan><tspan font-size="24" x="178.909" y="51">𝑍</tspan><tspan font-size="18" x="192.376" y="56">𝑛</tspan><tspan font-size="18" x="194.076" y="43">ℓ</tspan><tspan font-size="24" x="211.669" y="51">∈</tspan><tspan font-size="24" x="226.669" y="51"> </tspan><tspan font-size="24" x="232.003" y="51">⋅</tspan><tspan font-size="24" x="244.169" y="51">|</tspan><tspan font-size="24" x="251.836" y="51">𝑍</tspan><tspan font-size="18" x="264.749" y="57">1</tspan><tspan font-size="18" x="274.916" y="57">:</tspan><tspan font-size="18" x="279.583" y="57">𝑛</tspan><tspan font-size="18" x="291.216" y="57">−</tspan><tspan font-size="18" x="303.883" y="57">1</tspan><tspan font-size="18" x="267.003" y="42">ℓ</tspan><tspan font-size="24" x="315.043" y="51">)</tspan><tspan font-size="24" x="325.043" y="51">}</tspan><tspan font-size="18" x="334.376" y="56">ℓ</tspan><tspan font-size="18" x="343.376" y="56">≤</tspan><tspan font-size="18" x="354.376" y="56">𝐿</tspan><tspan font-size="14" x="363.876" y="60">𝑛</tspan><tspan font-size="14" x="374.043" y="60">−</tspan><tspan font-size="14" x="384.876" y="60">1</tspan><tspan font-size="14" x="393.376" y="60"> </tspan><tspan font-size="24" x="398.263" y="51"> </tspan><tspan font-size="37" x="-393.25" y="108">𝑜𝑏𝑗𝑒𝑐𝑡</tspan><tspan font-size="37" x="-289.85" y="108"> </tspan>𝑑𝑒𝑡𝑒𝑐𝑡𝑜𝑟<tspan font-size="37" x="-7.07654" y="112">𝑑𝑎𝑡𝑎</tspan><tspan font-size="37" x="70.6568" y="112"> </tspan><tspan font-size="37" x="78.8235" y="112">𝑎𝑠𝑠𝑜𝑐𝑖𝑎𝑡𝑖𝑜𝑛</tspan><tspan font-size="37" x="15.6279" y="226">𝑓𝑖𝑙𝑡𝑒𝑟</tspan><tspan font-size="37" x="110.268" y="226"> </tspan><tspan font-size="37" x="118.435" y="226">𝑢𝑝𝑑𝑎𝑡𝑒𝑠</tspan><tspan font-size="37" x="252.521" y="226"> </tspan><tspan font-size="37" x="-371.313" y="2">𝑜𝑝𝑡𝑖𝑐𝑎𝑙</tspan><tspan font-size="37" x="-254.646" y="2"> </tspan><tspan font-size="37" x="-246.479" y="2">𝑓𝑙𝑜𝑤</tspan><tspan font-size="37" x="-166.733" y="2"> </tspan></text><path d="M714.998 20.6395 715.303 20.6395C717.139 20.6785 718.512 21.2176 719.422 22.2567 720.332 23.2957 720.787 24.9442 720.787 27.202 720.787 28.0379 720.696 28.9871 720.512 30.0496 720.328 31.1121 720.237 31.8231 720.237 32.1825 720.237 32.8778 720.422 33.4422 720.793 33.8758 721.164 34.3094 721.725 34.5418 722.475 34.5731L722.475 35.534C721.725 35.5653 721.164 35.7957 720.793 36.2254 720.422 36.6551 720.237 37.2137 720.237 37.9012 720.237 38.2606 720.328 38.9657 720.512 40.0164 720.696 41.0672 720.787 42.0067 720.787 42.8348 720.787 45.1785 720.332 46.8641 719.422 47.8914 718.512 48.9188 717.139 49.452 715.303 49.491L714.998 49.491 714.998 48.6004 715.174 48.6004C716.307 48.6004 717.194 48.2215 717.834 47.4637 718.475 46.7059 718.795 45.3114 718.795 43.2801 718.795 42.5848 718.717 41.7196 718.561 40.6844 718.405 39.6493 718.326 38.909 718.326 38.4637 718.326 37.6121 718.522 36.9129 718.912 36.366 719.303 35.8192 719.768 35.4168 720.307 35.159L720.307 34.9481C719.768 34.6825 719.303 34.2743 718.912 33.7235 718.522 33.1727 718.326 32.4676 718.326 31.6082 718.326 31.1551 718.405 30.4071 718.561 29.3641 718.717 28.3211 718.795 27.4442 718.795 26.7332 718.795 24.7957 718.475 23.4442 717.834 22.6785 717.194 21.9129 716.307 21.5301 715.174 21.5301L714.998 21.5301ZM516.674 20.6395 516.978 20.6395 516.978 21.5301 516.803 21.5301C515.67 21.5301 514.783 21.9129 514.142 22.6785 513.502 23.4442 513.181 24.7957 513.181 26.7332 513.181 27.4442 513.26 28.3211 513.416 29.3641 513.572 30.4071 513.65 31.1551 513.65 31.6082 513.65 32.4676 513.455 33.1727 513.064 33.7235 512.674 34.2743 512.209 34.6825 511.67 34.9481L511.67 35.159C512.209 35.4168 512.674 35.8192 513.064 36.366 513.455 36.9129 513.65 37.6121 513.65 38.4637 513.65 38.909 513.572 39.6493 513.416 40.6844 513.26 41.7196 513.181 42.5848 513.181 43.2801 513.181 45.3114 513.502 46.7059 514.142 47.4637 514.783 48.2215 515.67 48.6004 516.803 48.6004L516.978 48.6004 516.978 49.491 516.674 49.491C514.838 49.452 513.465 48.9188 512.555 47.8914 511.644 46.8641 511.189 45.1785 511.189 42.8348 511.189 42.0067 511.281 41.0672 511.465 40.0164 511.648 38.9657 511.74 38.2606 511.74 37.9012 511.74 37.2137 511.554 36.6551 511.183 36.2254 510.812 35.7957 510.252 35.5653 509.502 35.534L509.502 34.5731C510.252 34.5418 510.812 34.3094 511.183 33.8758 511.554 33.4422 511.74 32.8778 511.74 32.1825 511.74 31.8231 511.648 31.1121 511.465 30.0496 511.281 28.9871 511.189 28.0379 511.189 27.202 511.189 24.9442 511.644 23.2957 512.555 22.2567 513.465 21.2176 514.838 20.6785 516.674 20.6395Z" fill-rule="evenodd"/><text font-family="Cambria Math,Cambria Math_MSFontService,sans-serif" font-weight="400" font-size="24" transform="translate(517.682 42)">ℙ<tspan font-size="24" x="16.6667" y="0">(</tspan>𝑋<tspan font-size="18" x="41.1133" y="5">𝑛</tspan><tspan font-size="18" x="52.7467" y="5">−</tspan><tspan font-size="18" x="65.4133" y="5">1</tspan><tspan font-size="18" x="43.3134" y="-9">ℓ</tspan><tspan font-size="24" x="83.2401" y="0">∈</tspan> <tspan font-size="24" x="103.573" y="0">⋅</tspan><tspan font-size="24" x="115.74" y="0">|</tspan><tspan font-size="24" x="123.407" y="0">𝑍</tspan><tspan font-size="18" x="136.32" y="5">1</tspan><tspan font-size="18" x="146.487" y="5">:</tspan><tspan font-size="18" x="151.153" y="5">𝑛</tspan><tspan font-size="18" x="162.787" y="5">−</tspan><tspan font-size="18" x="175.453" y="5">1</tspan><tspan font-size="18" x="138.573" y="-9">ℓ</tspan><tspan font-size="24" x="186.613" y="0">)</tspan><tspan font-size="18" x="205.907" y="11">ℓ</tspan><tspan font-size="18" x="214.907" y="11">≤</tspan><tspan font-size="18" x="225.907" y="11">𝐿</tspan><tspan font-size="14" x="235.407" y="15">𝑛</tspan><tspan font-size="14" x="245.573" y="15">−</tspan><tspan font-size="14" x="256.407" y="15">1</tspan><tspan font-size="14" x="264.907" y="15"> </tspan></text><path d="M0-0.333333 0.666667-0.333333 0.666667 0.333333 0 0.333333ZM1.33333-0.333333 2-0.333333 2 0.333333 1.33333 0.333333ZM2.66667-0.333333 3.33333-0.333333 3.33333 0.333333 2.66667 0.333333ZM4-0.333333 4.66667-0.333333 4.66667 0.333333 4 0.333333ZM5.33333-0.333333 6-0.333333 6 0.333333 5.33333 0.333333ZM6.66667-0.333333 7.33333-0.333333 7.33333 0.333333 6.66667 0.333333ZM8-0.333333 8.66667-0.333333 8.66667 0.333333 8 0.333333ZM9.33333-0.333333 10-0.333333 10 0.333333 9.33333 0.333333ZM10.6667-0.333333 11.3333-0.333333 11.3333 0.333333 10.6667 0.333333ZM12-0.333333 12.6667-0.333333 12.6667 0.333333 12 0.333333ZM13.3333-0.333333 14-0.333333 14 0.333333 13.3333 0.333333ZM14.6667-0.333333 15.3333-0.333333 15.3333 0.333333 14.6667 0.333333ZM16-0.333333 16.6667-0.333333 16.6667 0.333333 16 0.333333ZM17.3333-0.333333 18-0.333333 18 0.333333 17.3333 0.333333ZM18.6667-0.333333 19.3333-0.333333 19.3333 0.333333 18.6667 0.333333ZM20-0.333333 20.6667-0.333333 20.6667 0.333333 20 0.333333ZM21.3333-0.333333 22-0.333333 22 0.333333 21.3333 0.333333ZM22.6667-0.333333 23.3333-0.333333 23.3333 0.333333 22.6667 0.333333ZM24-0.333333 24.6667-0.333333 24.6667 0.333333 24 0.333333ZM25.3333-0.333333 26-0.333333 26 0.333333 25.3333 0.333333ZM26.6667-0.333333 27.3333-0.333333 27.3333 0.333333 26.6667 0.333333ZM28-0.333333 28.9465-0.333333 28.9465 0.0535367 28.2798 0.0535367 28.2798 0 28.6131 0.333333 28 0.333333ZM28.9465 0.720203 28.9465 1.38687 28.2798 1.38687 28.2798 0.720203ZM28.9465 2.05354 28.9465 2.7202 28.2798 2.7202 28.2798 2.05354ZM28.9465 3.38687 28.9465 4.05354 28.2798 4.05354 28.2798 3.38687ZM28.9465 4.7202 28.9465 5.38687 28.2798 5.38687 28.2798 4.7202ZM28.9465 6.05354 28.9465 6.7202 28.2798 6.7202 28.2798 6.05354ZM28.9465 7.38687 28.9465 8.05354 28.2798 8.05354 28.2798 7.38687ZM28.9465 8.7202 28.9465 9.38687 28.2798 9.38687 28.2798 8.7202ZM28.9465 10.0535 28.9465 10.7202 28.2798 10.7202 28.2798 10.0535ZM28.9465 11.3869 28.9465 12.0535 28.2798 12.0535 28.2798 11.3869ZM28.9465 12.7202 28.9465 13.3869 28.2798 13.3869 28.2798 12.7202ZM28.9465 14.0535 28.9465 14.7202 28.2798 14.7202 28.2798 14.0535ZM28.9465 15.3869 28.9465 16.0535 28.2798 16.0535 28.2798 15.3869ZM28.9465 16.7202 28.9465 17.3869 28.2798 17.3869 28.2798 16.7202ZM28.9465 18.0535 28.9465 18.7202 28.2798 18.7202 28.2798 18.0535ZM28.9465 19.3869 28.9465 20.0535 28.2798 20.0535 28.2798 19.3869ZM28.9465 20.7202 28.9465 21.3869 28.2798 21.3869 28.2798 20.7202ZM28.9465 22.0535 28.9465 22.7202 28.2798 22.7202 28.2798 22.0535ZM28.9465 23.3869 28.9465 24.0535 28.2798 24.0535 28.2798 23.3869ZM28.9465 24.7202 28.9465 25.3869 28.2798 25.3869 28.2798 24.7202ZM28.9465 26.0535 28.9465 26.7202 28.2798 26.7202 28.2798 26.0535ZM28.9465 27.3869 28.9465 28.0535 28.2798 28.0535 28.2798 27.3869ZM28.9465 28.7202 28.9465 29.3869 28.2798 29.3869 28.2798 28.7202ZM28.9465 30.0535 28.9465 30.7202 28.2798 30.7202 28.2798 30.0535ZM28.9465 31.3869 28.9465 32.0535 28.2798 32.0535 28.2798 31.3869ZM28.9465 32.7202 28.9465 33.3869 28.2798 33.3869 28.2798 32.7202ZM28.9465 34.0535 28.9465 34.7202 28.2798 34.7202 28.2798 34.0535ZM28.9465 35.3869 28.9465 36.0535 28.2798 36.0535 28.2798 35.3869ZM28.9465 36.7202 28.9465 37.3869 28.2798 37.3869 28.2798 36.7202ZM28.9465 38.0535 28.9465 38.7202 28.2798 38.7202 28.2798 38.0535ZM28.9465 39.3869 28.9465 40.0535 28.2798 40.0535 28.2798 39.3869ZM28.9465 40.7202 28.9465 41.3869 28.2798 41.3869 28.2798 40.7202ZM28.9465 42.0535 28.9465 42.7202 28.2798 42.7202 28.2798 42.0535ZM28.9465 43.3869 28.9465 44.0535 28.2798 44.0535 28.2798 43.3869ZM28.9465 44.7202 28.9465 45.3869 28.2798 45.3869 28.2798 44.7202ZM28.9465 46.0535 28.9465 46.7202 28.2798 46.7202 28.2798 46.0535ZM28.9465 47.3869 28.9465 48.0535 28.2798 48.0535 28.2798 47.3869ZM28.9465 48.7202 28.9465 49.3869 28.2798 49.3869 28.2798 48.7202ZM28.9465 50.0535 28.9465 50.7202 28.2798 50.7202 28.2798 50.0535ZM28.9465 51.3869 28.9465 52.0535 28.2798 52.0535 28.2798 51.3869ZM29.1138 51.8862 29.7805 51.8862 29.7805 52.5529 29.1138 52.5529ZM30.4471 51.8862 31.1138 51.8862 31.1138 52.5529 30.4471 52.5529ZM31.7805 51.8862 32.4471 51.8862 32.4471 52.5529 31.7805 52.5529ZM33.1138 51.8862 33.7805 51.8862 33.7805 52.5529 33.1138 52.5529ZM34.4471 51.8862 35.1138 51.8862 35.1138 52.5529 34.4471 52.5529ZM35.7805 51.8862 36.4471 51.8862 36.4471 52.5529 35.7805 52.5529ZM37.1138 51.8862 37.7805 51.8862 37.7805 52.5529 37.1138 52.5529ZM38.4471 51.8862 39.1138 51.8862 39.1138 52.5529 38.4471 52.5529ZM39.7805 51.8862 40.4471 51.8862 40.4471 52.5529 39.7805 52.5529ZM41.1138 51.8862 41.7805 51.8862 41.7805 52.5529 41.1138 52.5529ZM42.4471 51.8862 43.1138 51.8862 43.1138 52.5529 42.4471 52.5529ZM43.7805 51.8862 44.4471 51.8862 44.4471 52.5529 43.7805 52.5529ZM45.1138 51.8862 45.7805 51.8862 45.7805 52.5529 45.1138 52.5529ZM46.4471 51.8862 47.1138 51.8862 47.1138 52.5529 46.4471 52.5529ZM47.7805 51.8862 47.8761 51.8862 47.8761 52.5529 47.7805 52.5529ZM46.5428 48.2195 54.5428 52.2195 46.5428 56.2195Z" transform="matrix(1 0 0 -1 10.5001 174.72)"/><path d="M215.833 57.5 215.833 58.1667 215.167 58.1667 215.167 57.5001ZM215.833 58.8334 215.833 59.5 215.167 59.5001 215.167 58.8334ZM215.833 60.1667 215.833 60.8334 215.167 60.8334 215.167 60.1667ZM215.833 61.5 215.833 62.1667 215.167 62.1667 215.167 61.5001ZM215.833 62.8334 215.833 63.5 215.167 63.5001 215.167 62.8334ZM215.833 64.1667 215.834 64.8334 215.167 64.8334 215.167 64.1667ZM215.834 65.5 215.834 66.1667 215.167 66.1667 215.167 65.5001ZM215.834 66.8334 215.834 67.5 215.167 67.5001 215.167 66.8334ZM215.834 68.1667 215.834 68.8334 215.167 68.8334 215.167 68.1667ZM215.834 69.5 215.834 70.1667 215.167 70.1667 215.167 69.5001ZM215.834 70.8334 215.834 71.5 215.167 71.5001 215.167 70.8334ZM215.834 72.1667 215.834 72.8334 215.167 72.8334 215.167 72.1667ZM215.834 73.5 215.834 74.1667 215.167 74.1667 215.167 73.5001ZM215.834 74.8334 215.834 75.5 215.167 75.5001 215.167 74.8334ZM215.834 76.1667 215.834 76.8334 215.167 76.8334 215.167 76.1667ZM215.834 77.5 215.834 78.1667 215.167 78.1667 215.167 77.5001ZM215.834 78.8334 215.834 79.5 215.167 79.5001 215.167 78.8334ZM215.834 80.1667 215.834 80.8334 215.167 80.8334 215.167 80.1667ZM215.834 81.5 215.834 82.1667 215.167 82.1667 215.167 81.5001ZM215.834 82.8334 215.834 83.5 215.167 83.5001 215.167 82.8334ZM215.834 84.1667 215.834 84.8334 215.167 84.8334 215.167 84.1667ZM215.834 85.5 215.834 86.1667 215.167 86.1667 215.167 85.5001ZM219.501 85.4966 215.501 93.4967 211.501 85.4968Z"/><path d="M367.502 123.167 368.168 123.17 368.165 123.836 367.499 123.833ZM368.835 123.173 369.502 123.176 369.499 123.843 368.832 123.84ZM370.168 123.179 370.835 123.182 370.832 123.849 370.165 123.846ZM371.502 123.185 372.168 123.188 372.165 123.855 371.498 123.852ZM372.835 123.191 373.502 123.194 373.498 123.861 372.832 123.858ZM374.168 123.197 374.835 123.2 374.832 123.867 374.165 123.864ZM375.501 123.204 376.168 123.207 376.165 123.873 375.498 123.87ZM376.835 123.21 377.501 123.213 377.498 123.879 376.832 123.876ZM378.168 123.216 378.835 123.219 378.832 123.886 378.165 123.882ZM379.501 123.222 380.168 123.225 380.165 123.892 379.498 123.889ZM380.835 123.228 381.501 123.231 381.498 123.898 380.832 123.895ZM382.168 123.234 382.835 123.237 382.832 123.904 382.165 123.901ZM383.501 123.24 384.168 123.243 384.165 123.91 383.498 123.907ZM384.835 123.246 385.501 123.25 385.498 123.916 384.832 123.913ZM386.168 123.253 386.835 123.256 386.832 123.922 386.165 123.919ZM387.501 123.259 388.168 123.262 388.165 123.928 387.498 123.925ZM388.835 123.265 389.501 123.268 389.498 123.935 388.832 123.932ZM390.168 123.271 390.835 123.274 390.832 123.941 390.165 123.938ZM391.501 123.277 392.168 123.28 392.165 123.947 391.498 123.944ZM392.835 123.283 393.501 123.286 393.498 123.953 392.832 123.95ZM394.168 123.289 394.835 123.292 394.832 123.959 394.165 123.956ZM395.501 123.296 396.168 123.299 396.165 123.965 395.498 123.962ZM396.835 123.302 397.501 123.305 397.498 123.971 396.832 123.968ZM398.168 123.308 398.835 123.311 398.832 123.978 398.165 123.974ZM399.501 123.314 400.168 123.317 400.165 123.984 399.498 123.981ZM400.835 123.32 401.501 123.323 401.498 123.99 400.832 123.987ZM402.168 123.326 402.835 123.329 402.832 123.996 402.165 123.993ZM403.501 123.332 404.168 123.335 404.165 124.002 403.498 123.999ZM404.835 123.338 405.501 123.342 405.498 124.008 404.831 124.005ZM406.168 123.345 406.835 123.348 406.831 124.014 406.165 124.011ZM407.501 123.351 408.168 123.354 408.165 124.02 407.498 124.017ZM408.835 123.357 409.501 123.36 409.498 124.027 408.831 124.024ZM410.168 123.363 410.834 123.366 410.831 124.033 410.165 124.03ZM411.501 123.369 412.168 123.372 412.165 124.039 411.498 124.036ZM412.834 123.375 413.501 123.378 413.498 124.045 412.831 124.042ZM414.168 123.381 414.834 123.384 414.831 124.051 414.165 124.048ZM415.501 123.388 416.168 123.391 416.165 124.057 415.498 124.054ZM416.834 123.394 417.501 123.397 417.498 124.063 416.831 124.06ZM418.168 123.4 418.834 123.403 418.831 124.07 418.165 124.066ZM419.501 123.406 420.168 123.409 420.165 124.076 419.498 124.073ZM420.834 123.412 421.501 123.415 421.498 124.082 420.831 124.079ZM422.168 123.418 422.834 123.421 422.831 124.088 422.165 124.085ZM423.501 123.424 424.168 123.427 424.165 124.094 423.498 124.091ZM424.834 123.43 425.501 123.434 425.498 124.1 424.831 124.097ZM426.168 123.437 426.834 123.44 426.831 124.106 426.165 124.103ZM427.501 123.443 428.168 123.446 428.165 124.112 427.498 124.109ZM428.834 123.449 429.501 123.452 429.498 124.119 428.831 124.116ZM430.168 123.455 430.834 123.458 430.831 124.125 430.165 124.122ZM431.501 123.461 432.168 123.464 432.165 124.131 431.498 124.128ZM432.834 123.467 433.501 123.47 433.498 124.137 432.831 124.134ZM434.168 123.473 434.834 123.476 434.831 124.143 434.165 124.14ZM435.501 123.48 436.168 123.483 436.164 124.149 435.498 124.146ZM436.834 123.486 437.501 123.489 437.498 124.155 436.831 124.152ZM438.168 123.492 438.834 123.495 438.831 124.162 438.164 124.158ZM439.501 123.498 440.168 123.501 440.164 124.168 439.498 124.165ZM440.834 123.504 441.501 123.507 441.498 124.174 440.831 124.171ZM442.168 123.51 442.834 123.513 442.831 124.18 442.164 124.177ZM443.501 123.516 444.167 123.519 444.164 124.186 443.498 124.183ZM444.834 123.522 445.501 123.526 445.498 124.192 444.831 124.189ZM446.167 123.529 446.834 123.532 446.831 124.198 446.164 124.195ZM447.501 123.535 448.167 123.538 448.164 124.204 447.498 124.201ZM448.834 123.541 449.501 123.544 449.498 124.211 448.831 124.208ZM450.167 123.547 450.834 123.55 450.831 124.217 450.164 124.214ZM451.501 123.553 452.167 123.556 452.164 124.223 451.498 124.22ZM452.834 123.559 453.501 123.562 453.498 124.229 452.831 124.226ZM454.167 123.565 454.834 123.569 454.831 124.235 454.164 124.232ZM455.501 123.572 456.167 123.575 456.164 124.241 455.498 124.238ZM456.834 123.578 457.501 123.581 457.498 124.247 456.831 124.244ZM458.167 123.584 458.834 123.587 458.831 124.254 458.164 124.25ZM459.501 123.59 460.167 123.593 460.164 124.26 459.498 124.257ZM458.97 119.921 466.951 123.958 458.933 127.921Z"/><path d="M367.5 230.167 368.167 230.167 368.167 230.833 367.5 230.833ZM368.833 230.167 369.5 230.167 369.5 230.833 368.833 230.833ZM370.167 230.167 370.833 230.167 370.833 230.833 370.167 230.833ZM371.5 230.167 372.167 230.167 372.167 230.833 371.5 230.833ZM372.833 230.167 373.5 230.167 373.5 230.833 372.833 230.833ZM374.167 230.167 374.833 230.167 374.833 230.833 374.167 230.833ZM375.5 230.167 376.167 230.167 376.167 230.833 375.5 230.833ZM376.833 230.167 377.5 230.167 377.5 230.833 376.833 230.833ZM378.167 230.167 378.833 230.167 378.833 230.833 378.167 230.833ZM379.5 230.167 380.167 230.167 380.167 230.833 379.5 230.833ZM380.833 230.167 381.5 230.167 381.5 230.833 380.833 230.833ZM382.167 230.167 382.833 230.167 382.833 230.833 382.167 230.833ZM383.5 230.167 384.167 230.167 384.167 230.833 383.5 230.833ZM384.833 230.167 385.5 230.167 385.5 230.833 384.833 230.833ZM386.167 230.167 386.833 230.167 386.833 230.833 386.167 230.833ZM387.5 230.167 388.167 230.167 388.167 230.833 387.5 230.833ZM388.833 230.167 389.5 230.167 389.5 230.833 388.833 230.833ZM390.167 230.167 390.833 230.167 390.833 230.833 390.167 230.833ZM391.5 230.167 392.167 230.167 392.167 230.833 391.5 230.833ZM392.833 230.167 393.5 230.167 393.5 230.833 392.833 230.833ZM394.167 230.167 394.833 230.167 394.833 230.833 394.167 230.833ZM395.5 230.167 396.167 230.167 396.167 230.833 395.5 230.833ZM396.833 230.167 397.5 230.167 397.5 230.833 396.833 230.833ZM398.167 230.167 398.833 230.167 398.833 230.833 398.167 230.833ZM399.5 230.167 400.167 230.167 400.167 230.833 399.5 230.833ZM400.833 230.167 401.5 230.167 401.5 230.833 400.833 230.833ZM402.167 230.167 402.833 230.167 402.833 230.833 402.167 230.833ZM403.5 230.167 404.167 230.167 404.167 230.833 403.5 230.833ZM404.833 230.167 405.5 230.167 405.5 230.833 404.833 230.833ZM406.167 230.167 406.833 230.167 406.833 230.833 406.167 230.833ZM407.5 230.167 408.167 230.167 408.167 230.833 407.5 230.833ZM408.833 230.167 409.5 230.167 409.5 230.833 408.833 230.833ZM410.167 230.167 410.833 230.167 410.833 230.833 410.167 230.833ZM411.5 230.167 412.167 230.167 412.167 230.833 411.5 230.833ZM412.833 230.167 413.5 230.167 413.5 230.833 412.833 230.833ZM414.167 230.167 414.833 230.167 414.833 230.833 414.167 230.833ZM415.5 230.167 416.167 230.167 416.167 230.833 415.5 230.833ZM416.833 230.167 417.5 230.167 417.5 230.833 416.833 230.833ZM418.167 230.167 418.833 230.167 418.833 230.833 418.167 230.833ZM419.5 230.167 420.167 230.167 420.167 230.833 419.5 230.833ZM420.833 230.167 421.5 230.167 421.5 230.833 420.833 230.833ZM422.167 230.167 422.833 230.167 422.833 230.833 422.167 230.833ZM423.5 230.167 424.167 230.167 424.167 230.833 423.5 230.833ZM424.833 230.167 425.5 230.167 425.5 230.833 424.833 230.833ZM426.167 230.167 426.833 230.167 426.833 230.833 426.167 230.833ZM427.5 230.167 428.167 230.167 428.167 230.833 427.5 230.833ZM428.833 230.167 429.5 230.167 429.5 230.833 428.833 230.833ZM430.167 230.167 430.833 230.167 430.833 230.833 430.167 230.833ZM431.5 230.167 432.167 230.167 432.167 230.833 431.5 230.833ZM432.833 230.167 433.5 230.167 433.5 230.833 432.833 230.833ZM434.167 230.167 434.833 230.167 434.833 230.833 434.167 230.833ZM435.5 230.167 436.167 230.167 436.167 230.833 435.5 230.833ZM436.833 230.167 437.5 230.167 437.5 230.833 436.833 230.833ZM438.167 230.167 438.833 230.167 438.833 230.833 438.167 230.833ZM439.5 230.167 440.167 230.167 440.167 230.833 439.5 230.833ZM440.833 230.167 441.5 230.167 441.5 230.833 440.833 230.833ZM442.167 230.167 442.833 230.167 442.833 230.833 442.167 230.833ZM443.5 230.167 444.167 230.167 444.167 230.833 443.5 230.833ZM444.833 230.167 445.5 230.167 445.5 230.833 444.833 230.833ZM446.167 230.167 446.833 230.167 446.833 230.833 446.167 230.833ZM447.5 230.167 448.167 230.167 448.167 230.833 447.5 230.833ZM448.833 230.167 449.5 230.167 449.5 230.833 448.833 230.833ZM450.167 230.167 450.833 230.167 450.833 230.833 450.167 230.833ZM451.5 230.167 452.167 230.167 452.167 230.833 451.5 230.833ZM452.833 230.167 453.5 230.167 453.5 230.833 452.833 230.833ZM454.167 230.167 454.833 230.167 454.833 230.833 454.167 230.833ZM455.5 230.167 456.167 230.167 456.167 230.833 455.5 230.833ZM456.833 230.167 457.5 230.167 457.5 230.833 456.833 230.833ZM458.167 230.167 458.833 230.167 458.833 230.833 458.167 230.833ZM459.5 230.167 460.167 230.167 460.167 230.833 459.5 230.833ZM460.833 230.167 461.13 230.167 461.13 230.833 460.833 230.833ZM459.796 226.5 467.796 230.5 459.796 234.5Z"/><path d="M617.833 153.5 617.833 154.167 617.167 154.167 617.167 153.5ZM617.833 154.833 617.833 155.5 617.167 155.5 617.167 154.833ZM617.833 156.167 617.833 156.833 617.167 156.833 617.167 156.167ZM617.833 157.5 617.833 158.167 617.167 158.167 617.167 157.5ZM617.833 158.833 617.833 159.5 617.167 159.5 617.167 158.833ZM617.833 160.167 617.833 160.833 617.167 160.833 617.167 160.167ZM617.833 161.5 617.833 162.167 617.167 162.167 617.167 161.5ZM617.833 162.833 617.833 163.5 617.167 163.5 617.167 162.833ZM617.833 164.167 617.833 164.833 617.167 164.833 617.167 164.167ZM617.833 165.5 617.833 166.167 617.167 166.167 617.167 165.5ZM617.833 166.833 617.833 167.5 617.167 167.5 617.167 166.833ZM617.833 168.167 617.833 168.833 617.167 168.833 617.167 168.167ZM617.833 169.5 617.833 170.167 617.167 170.167 617.167 169.5ZM617.833 170.833 617.833 171.5 617.167 171.5 617.167 170.833ZM617.833 172.167 617.833 172.833 617.167 172.833 617.167 172.167ZM617.833 173.5 617.833 174.167 617.167 174.167 617.167 173.5ZM617.833 174.833 617.833 175.5 617.167 175.5 617.167 174.833ZM617.833 176.167 617.833 176.833 617.167 176.833 617.167 176.167ZM617.833 177.5 617.833 178.167 617.167 178.167 617.167 177.5ZM617.833 178.833 617.833 179.5 617.167 179.5 617.167 178.833ZM617.833 180.167 617.833 180.833 617.167 180.833 617.167 180.167ZM617.833 181.5 617.833 182.167 617.167 182.167 617.167 181.5ZM617.833 182.833 617.833 183.5 617.167 183.5 617.167 182.833ZM617.833 184.167 617.833 184.833 617.167 184.833 617.167 184.167ZM617.833 185.5 617.833 186.167 617.167 186.167 617.167 185.5ZM617.833 186.833 617.833 187.5 617.167 187.5 617.167 186.833ZM617.833 188.167 617.833 188.833 617.167 188.833 617.167 188.167ZM617.833 189.5 617.833 190.167 617.167 190.167 617.167 189.5ZM617.833 190.833 617.833 191.5 617.167 191.5 617.167 190.833ZM617.833 192.167 617.833 192.833 617.167 192.833 617.167 192.167ZM617.833 193.5 617.833 194.167 617.167 194.167 617.167 193.5ZM617.833 194.833 617.833 195.5 617.167 195.5 617.167 194.833ZM617.833 196.167 617.833 196.833 617.167 196.833 617.167 196.167ZM617.833 197.5 617.833 197.789 617.167 197.789 617.167 197.5ZM621.5 196.456 617.5 204.456 613.5 196.456Z"/><path d="M616.833 59.5001 616.833 60.1667 616.167 60.1667 616.167 59.5001ZM616.833 60.8334 616.833 61.5001 616.167 61.5001 616.167 60.8334ZM616.833 62.1667 616.833 62.8334 616.167 62.8334 616.167 62.1667ZM616.833 63.5001 616.833 64.1667 616.167 64.1667 616.167 63.5001ZM616.833 64.8334 616.833 65.5001 616.167 65.5001 616.167 64.8334ZM616.833 66.1667 616.833 66.8334 616.167 66.8334 616.167 66.1667ZM616.833 67.5001 616.833 68.1667 616.167 68.1667 616.167 67.5001ZM616.833 68.8334 616.833 69.5001 616.167 69.5001 616.167 68.8334ZM616.833 70.1667 616.833 70.8334 616.167 70.8334 616.167 70.1667ZM616.833 71.5001 616.833 72.1667 616.167 72.1667 616.167 71.5001ZM616.833 72.8334 616.833 73.5001 616.167 73.5001 616.167 72.8334ZM616.833 74.1667 616.833 74.8334 616.167 74.8334 616.167 74.1667ZM616.833 75.5001 616.833 76.1667 616.167 76.1667 616.167 75.5001ZM616.833 76.8334 616.833 77.5001 616.167 77.5001 616.167 76.8334ZM616.833 78.1667 616.833 78.8334 616.167 78.8334 616.167 78.1667ZM616.833 79.5001 616.833 80.1667 616.167 80.1667 616.167 79.5001ZM616.833 80.8334 616.833 81.5001 616.167 81.5001 616.167 80.8334ZM616.833 82.1667 616.833 82.8334 616.167 82.8334 616.167 82.1667ZM616.833 83.5001 616.833 84.1667 616.167 84.1667 616.167 83.5001ZM616.833 84.8334 616.833 85.5001 616.167 85.5001 616.167 84.8334ZM616.833 86.1667 616.833 86.8334 616.167 86.8334 616.167 86.1667ZM620.5 86.091 616.5 94.091 612.5 86.091Z"/><path d="M616.833 263.5 616.833 264.167 616.167 264.167 616.167 263.5ZM616.833 264.833 616.833 265.5 616.167 265.5 616.167 264.833ZM616.833 266.167 616.833 266.833 616.167 266.833 616.167 266.167ZM616.833 267.5 616.833 268.167 616.167 268.167 616.167 267.5ZM616.833 268.833 616.833 269.5 616.167 269.5 616.167 268.833ZM616.833 270.167 616.833 270.833 616.167 270.833 616.167 270.167ZM616.833 271.5 616.833 272.167 616.167 272.167 616.167 271.5ZM616.833 272.833 616.833 273.5 616.167 273.5 616.167 272.833ZM616.833 274.167 616.833 274.833 616.167 274.833 616.167 274.167ZM616.833 275.5 616.833 276.167 616.167 276.167 616.167 275.5ZM616.833 276.833 616.833 277.5 616.167 277.5 616.167 276.833ZM616.833 278.167 616.833 278.833 616.167 278.833 616.167 278.167ZM616.833 279.5 616.833 280.167 616.167 280.167 616.167 279.5ZM616.833 280.833 616.833 281.5 616.167 281.5 616.167 280.833ZM616.833 282.167 616.833 282.833 616.167 282.833 616.167 282.167ZM616.833 283.5 616.833 284.167 616.167 284.167 616.167 283.5ZM616.833 284.833 616.833 285.5 616.167 285.5 616.167 284.833ZM616.833 286.167 616.833 286.833 616.167 286.833 616.167 286.167ZM616.833 287.5 616.833 288.167 616.167 288.167 616.167 287.5ZM616.833 288.833 616.833 289.5 616.167 289.5 616.167 288.833ZM616.833 290.167 616.833 290.833 616.167 290.833 616.167 290.167ZM616.833 291.5 616.833 292.167 616.167 292.167 616.167 291.5ZM616.833 292.833 616.833 293.5 616.167 293.5 616.167 292.833ZM616.833 294.167 616.833 294.833 616.167 294.833 616.167 294.167ZM616.833 295.5 616.833 296.167 616.167 296.167 616.167 295.5ZM616.833 296.833 616.833 297.5 616.167 297.5 616.167 296.833ZM616.833 298.167 616.833 298.833 616.167 298.833 616.167 298.167ZM616.833 299.5 616.833 300.167 616.167 300.167 616.167 299.5ZM616.833 300.833 616.833 301.5 616.167 301.5 616.167 300.833ZM616.833 302.167 616.833 302.833 616.167 302.833 616.167 302.167ZM616.833 303.5 616.833 304.167 616.167 304.167 616.167 303.5ZM616.833 304.833 616.833 305.5 616.167 305.5 616.167 304.833ZM616.833 306.167 616.833 306.833 616.167 306.833 616.167 306.167ZM616.833 307.5 616.833 308.167 616.167 308.167 616.167 307.5ZM616.833 308.833 616.833 309.47 616.167 309.47 616.167 308.833ZM620.5 308.137 616.5 316.137 612.5 308.137Z"/><path d="M622.833 377.496 622.842 378.163 622.175 378.171 622.167 377.504ZM622.85 378.829 622.858 379.496 622.191 379.504 622.183 378.837ZM622.866 380.162 622.875 380.829 622.208 380.837 622.2 380.171ZM622.883 381.496 622.891 382.162 622.224 382.171 622.216 381.504ZM622.899 382.829 622.908 383.495 622.241 383.504 622.233 382.837ZM622.916 384.162 622.924 384.829 622.257 384.837 622.249 384.17ZM622.932 385.495 622.941 386.162 622.274 386.17 622.266 385.504ZM622.949 386.829 622.957 387.495 622.29 387.503 622.282 386.837ZM622.965 388.162 622.974 388.828 622.307 388.837 622.299 388.17ZM622.982 389.495 622.99 390.162 622.323 390.17 622.315 389.503ZM622.998 390.828 623.007 391.495 622.34 391.503 622.332 390.836ZM623.015 392.161 623.023 392.828 622.356 392.836 622.348 392.17ZM623.031 393.495 623.039 394.161 622.373 394.17 622.365 393.503ZM623.048 394.828 623.056 395.495 622.389 395.503 622.381 394.836ZM623.064 396.161 623.072 396.828 622.406 396.836 622.398 396.169ZM623.081 397.494 623.089 398.161 622.422 398.169 622.414 397.503ZM623.097 398.828 623.105 399.494 622.439 399.503 622.431 398.836ZM623.114 400.161 623.122 400.827 622.455 400.836 622.447 400.169ZM623.13 401.494 623.138 402.161 622.472 402.169 622.464 401.502ZM623.147 402.827 623.155 403.494 622.488 403.502 622.48 402.836ZM623.163 404.161 623.171 404.827 622.505 404.835 622.497 404.169ZM623.18 405.494 623.188 406.16 622.521 406.169 622.513 405.502ZM623.196 406.827 623.204 407.494 622.538 407.502 622.529 406.835ZM623.213 408.16 623.221 408.827 622.554 408.835 622.546 408.168ZM623.229 409.493 623.237 410.16 622.571 410.168 622.562 409.502ZM623.246 410.827 623.254 411.493 622.587 411.502 622.579 410.835ZM623.262 412.16 623.27 412.827 622.604 412.835 622.595 412.168ZM623.279 413.493 623.287 414.16 622.62 414.168 622.612 413.501ZM623.295 414.826 623.303 415.493 622.637 415.501 622.628 414.835ZM623.312 416.16 623.32 416.826 622.653 416.835 622.645 416.168ZM623.328 417.493 623.336 418.159 622.67 418.168 622.661 417.501ZM623.345 418.826 623.353 419.493 622.686 419.501 622.678 418.834ZM623.361 420.159 623.369 420.826 622.703 420.834 622.694 420.168ZM623.378 421.493 623.386 422.159 622.719 422.167 622.711 421.501ZM623.394 422.826 623.402 423.492 622.736 423.501 622.727 422.834ZM623.41 424.159 623.419 424.826 622.752 424.834 622.744 424.167ZM623.427 425.492 623.435 426.159 622.769 426.167 622.76 425.501ZM623.443 426.826 623.452 427.492 622.785 427.5 622.777 426.834ZM623.46 428.159 623.468 428.825 622.802 428.834 622.793 428.167ZM623.476 429.492 623.485 430.159 622.818 430.167 622.81 429.5ZM623.493 430.825 623.501 431.492 622.835 431.5 622.826 430.833ZM623.509 432.158 623.518 432.825 622.851 432.833 622.843 432.167ZM623.526 433.492 623.534 434.158 622.868 434.167 622.859 433.5ZM623.542 434.825 623.551 435.491 622.884 435.5 622.876 434.833ZM623.559 436.158 623.567 436.825 622.901 436.833 622.892 436.166ZM623.575 437.491 623.584 438.158 622.917 438.166 622.909 437.5ZM623.592 438.825 623.6 439.491 622.933 439.499 622.925 438.833ZM623.608 440.158 623.617 440.824 622.95 440.833 622.942 440.166ZM623.625 441.491 623.633 442.158 622.966 442.166 622.958 441.499ZM623.641 442.824 623.65 443.491 622.983 443.499 622.975 442.833ZM627.302 442.32 623.401 450.369 619.303 442.419Z"/><path d="M794.303 405.353 794.608 405.353C796.444 405.392 797.817 405.931 798.727 406.97 799.637 408.009 800.092 409.658 800.092 411.915 800.092 412.751 800.001 413.701 799.817 414.763 799.633 415.826 799.542 416.537 799.542 416.896 799.542 417.591 799.727 418.156 800.098 418.589 800.469 419.023 801.03 419.255 801.78 419.287L801.78 420.247C801.03 420.279 800.469 420.509 800.098 420.939 799.727 421.369 799.542 421.927 799.542 422.615 799.542 422.974 799.633 423.679 799.817 424.73 800.001 425.781 800.092 426.72 800.092 427.548 800.092 429.892 799.637 431.578 798.727 432.605 797.817 433.632 796.444 434.165 794.608 434.205L794.303 434.205 794.303 433.314 794.479 433.314C795.612 433.314 796.499 432.935 797.139 432.177 797.78 431.419 798.1 430.025 798.1 427.994 798.1 427.298 798.022 426.433 797.866 425.398 797.71 424.363 797.631 423.622 797.631 423.177 797.631 422.326 797.827 421.626 798.217 421.08 798.608 420.533 799.073 420.13 799.612 419.872L799.612 419.662C799.073 419.396 798.608 418.988 798.217 418.437 797.827 417.886 797.631 417.181 797.631 416.322 797.631 415.869 797.71 415.121 797.866 414.078 798.022 413.035 798.1 412.158 798.1 411.447 798.1 409.509 797.78 408.158 797.139 407.392 796.499 406.626 795.612 406.244 794.479 406.244L794.303 406.244ZM641.645 405.353 641.95 405.353 641.95 406.244 641.774 406.244C640.641 406.244 639.755 406.626 639.114 407.392 638.473 408.158 638.153 409.509 638.153 411.447 638.153 412.158 638.231 413.035 638.388 414.078 638.544 415.121 638.622 415.869 638.622 416.322 638.622 417.181 638.427 417.886 638.036 418.437 637.645 418.988 637.18 419.396 636.641 419.662L636.641 419.872C637.18 420.13 637.645 420.533 638.036 421.08 638.427 421.626 638.622 422.326 638.622 423.177 638.622 423.622 638.544 424.363 638.388 425.398 638.231 426.433 638.153 427.298 638.153 427.994 638.153 430.025 638.473 431.419 639.114 432.177 639.755 432.935 640.641 433.314 641.774 433.314L641.95 433.314 641.95 434.205 641.645 434.205C639.809 434.165 638.436 433.632 637.526 432.605 636.616 431.578 636.161 429.892 636.161 427.548 636.161 426.72 636.253 425.781 636.436 424.73 636.62 423.679 636.712 422.974 636.712 422.615 636.712 421.927 636.526 421.369 636.155 420.939 635.784 420.509 635.223 420.279 634.473 420.247L634.473 419.287C635.223 419.255 635.784 419.023 636.155 418.589 636.526 418.156 636.712 417.591 636.712 416.896 636.712 416.537 636.62 415.826 636.436 414.763 636.253 413.701 636.161 412.751 636.161 411.915 636.161 409.658 636.616 408.009 637.526 406.97 638.436 405.931 639.809 405.392 641.645 405.353Z" fill-rule="evenodd"/><text font-family="Cambria Math,Cambria Math_MSFontService,sans-serif" font-weight="400" font-size="24" transform="translate(642.654 427)">ℙ<tspan font-size="24" x="16.6666" y="0">(</tspan>𝑋<tspan font-size="18" x="41.1133" y="5">𝑛</tspan><tspan font-size="18" x="43.3133" y="-9">ℓ</tspan><tspan font-size="24" x="60.4067" y="0">∈</tspan> <tspan font-size="24" x="80.74" y="0">⋅</tspan><tspan font-size="24" x="92.9067" y="0">|</tspan><tspan font-size="24" x="100.573" y="0">𝑍</tspan><tspan font-size="18" x="113.487" y="5">1</tspan><tspan font-size="18" x="123.653" y="5">:</tspan><tspan font-size="18" x="128.32" y="5">𝑛</tspan><tspan font-size="18" x="115.74" y="-10">ℓ</tspan><tspan font-size="24" x="140.947" y="0">)</tspan><tspan font-size="18" x="160.24" y="11">ℓ</tspan><tspan font-size="18" x="169.24" y="11">≤</tspan><tspan font-size="18" x="180.24" y="11">𝐿</tspan><tspan font-size="14" x="189.74" y="15">𝑛</tspan><tspan font-size="14" x="199.907" y="15"> </tspan><tspan font-size="24" x="-16.6179" y="-133">{</tspan><tspan font-size="24" x="-7.28461" y="-133">𝑎</tspan><tspan font-size="18" x="5.02209" y="-128">𝜌</tspan><tspan font-size="24" x="17.6487" y="-133">(</tspan>𝑖<tspan font-size="24" x="36.0754" y="-133">)</tspan>}<tspan font-size="18" x="55.4088" y="-128">𝑖</tspan><tspan font-size="18" x="62.1754" y="-128">≤</tspan><tspan font-size="18" x="73.1754" y="-128">𝐷</tspan><tspan font-size="14" x="84.5821" y="-125">𝑛</tspan><tspan font-size="24" x="96.4688" y="-133"> </tspan><tspan font-size="18" x="-145.188" y="-17">𝑛𝑒𝑤</tspan><tspan font-size="18" x="-111.315" y="-17"> </tspan><tspan font-size="18" x="-107.315" y="-17">𝑓𝑖𝑙𝑡𝑒𝑟𝑖𝑛𝑔</tspan><tspan font-size="18" x="-32.5012" y="-17"> </tspan><tspan font-size="18" x="-143.961" y="6">𝑑𝑖𝑠𝑡𝑟𝑖𝑏𝑢𝑡𝑖𝑜𝑛𝑠</tspan><tspan font-size="18" x="-91.1878" y="28"> </tspan><tspan font-size="18" x="-272.175" y="-204">𝑑𝑒𝑡𝑒𝑐𝑡𝑖𝑜𝑛𝑠</tspan><tspan font-size="18" x="-638.805" y="-233">𝑛𝑒𝑤</tspan><tspan font-size="18" x="-604.931" y="-233"> </tspan><tspan font-size="18" x="-638.805" y="-211">𝑓𝑟𝑎𝑚𝑒</tspan><tspan font-size="18" x="172.518" y="-395">𝑓𝑖𝑙𝑡𝑒𝑟𝑖𝑛𝑔</tspan><tspan font-size="18" x="247.331" y="-395"> </tspan><tspan font-size="18" x="159.345" y="-373">𝑑𝑖𝑠𝑡𝑟𝑖𝑏𝑢𝑡𝑖𝑜𝑛𝑠</tspan><tspan font-size="18" x="268.891" y="-373"> </tspan><tspan font-size="18" x="134.308" y="-310">𝑛𝑒𝑤</tspan><tspan font-size="18" x="168.182" y="-310"> </tspan><tspan font-size="18" x="172.182" y="-310">𝑠𝑡𝑎𝑡𝑒𝑠</tspan><tspan font-size="18" x="223.562" y="-310"> </tspan><tspan font-size="18" x="227.562" y="-310">𝑋</tspan><tspan font-size="13" x="238.588" y="-306">𝑛</tspan><tspan font-size="13" x="240.275" y="-316">ℓ</tspan><tspan font-size="18" x="248.248" y="-310"> </tspan><tspan font-size="18" x="252.248" y="-310">𝑎𝑟𝑒</tspan><tspan font-size="18" x="280.655" y="-310"> </tspan><tspan font-size="18" x="284.655" y="-310">𝑝𝑟𝑜𝑝𝑎𝑔𝑎𝑡𝑒𝑑</tspan><tspan font-size="18" x="383.075" y="-310"> </tspan><tspan font-size="18" x="134.308" y="-288">𝑢𝑠𝑖𝑛𝑔</tspan><tspan font-size="18" x="181.122" y="-288"> </tspan><tspan font-size="18" x="185.122" y="-288">𝑙𝑖𝑛𝑒𝑎𝑟𝑖𝑧𝑒𝑑</tspan><tspan font-size="18" x="270.375" y="-288"> </tspan><tspan font-size="18" x="274.375" y="-288">𝑠𝑡𝑎𝑡𝑒</tspan><tspan font-size="18" x="317.282" y="-288"> </tspan><tspan font-size="18" x="321.282" y="-288">𝑡𝑟𝑎𝑛𝑠𝑖𝑡𝑖𝑜𝑛</tspan><tspan font-size="18" x="-253.655" y="-337"> </tspan><tspan font-size="18" x="-249.655" y="-337">𝑓𝑙𝑜𝑤</tspan><tspan font-size="18" x="-209.615" y="-337"> </tspan><tspan font-size="18" x="-266.255" y="-315">𝑒𝑠𝑡𝑖𝑚𝑎𝑡𝑒</tspan><tspan font-size="18" x="-148.15" y="-253">𝑝𝑟𝑒𝑑𝑖𝑐𝑡𝑖𝑣𝑒</tspan><tspan font-size="18" x="-62.2433" y="-253"> </tspan><tspan font-size="18" x="-58.2433" y="-253"> </tspan><tspan font-size="18" x="-148.15" y="-231">𝑑𝑖𝑠𝑡𝑟𝑖𝑏𝑢𝑡𝑖𝑜𝑛𝑠</tspan><tspan font-size="18" x="132.311" y="-198">𝑃</tspan></text><path d="M817.769 215.087C819.48 215.538 820.794 216.512 821.711 218.009 822.628 219.506 823.086 221.313 823.086 223.428 823.086 225.549 822.629 227.355 821.715 228.846 820.801 230.337 819.485 231.309 817.769 231.76L817.558 231.083C818.911 230.632 819.918 229.741 820.577 228.411 821.236 227.081 821.566 225.391 821.566 223.34 821.566 221.359 821.237 219.714 820.581 218.405 819.925 217.095 818.908 216.215 817.531 215.764ZM793.643 215.087 793.881 215.764C792.51 216.215 791.495 217.095 790.835 218.405 790.176 219.714 789.847 221.359 789.847 223.34 789.847 225.391 790.176 227.081 790.835 228.411 791.495 229.741 792.501 230.632 793.854 231.083L793.643 231.76C791.927 231.309 790.611 230.337 789.697 228.846 788.783 227.355 788.326 225.549 788.326 223.428 788.326 221.313 788.785 219.506 789.702 218.009 790.619 216.512 791.933 215.538 793.643 215.087Z" fill-rule="evenodd"/><text font-family="Cambria Math,Cambria Math_MSFontService,sans-serif" font-weight="400" font-size="18" transform="translate(794.377 229)">𝑖<tspan font-size="18" x="6.41998" y="0">,</tspan><tspan font-size="18" x="13.32" y="0">ℓ</tspan><tspan font-size="18" x="35.5667" y="0">=</tspan><tspan font-size="18" x="54.3467" y="0"> </tspan>ℙ</text><path d="M1022.74 212.567C1024.57 213.047 1025.98 214.292 1026.97 216.302 1027.96 218.312 1028.45 220.691 1028.45 223.439 1028.45 226.187 1027.96 228.566 1026.97 230.576 1025.98 232.585 1024.57 233.83 1022.74 234.311L1022.52 233.59C1023.94 233.057 1025.01 231.895 1025.74 230.105 1026.47 228.315 1026.84 226.096 1026.84 223.448 1026.84 220.793 1026.47 218.57 1025.74 216.777 1025.01 214.984 1023.94 213.821 1022.52 213.288ZM872.686 212.567 872.905 213.288C871.487 213.821 870.414 214.984 869.684 216.777 868.955 218.57 868.59 220.793 868.59 223.448 868.59 226.096 868.955 228.315 869.684 230.105 870.414 231.895 871.487 233.057 872.905 233.59L872.686 234.311C870.858 233.83 869.448 232.585 868.458 230.576 867.468 228.566 866.973 226.187 866.973 223.439 866.973 220.691 867.468 218.312 868.458 216.302 869.448 214.292 870.858 213.047 872.686 212.567Z" fill-rule="evenodd"/><text font-family="Cambria Math,Cambria Math_MSFontService,sans-serif" font-weight="400" font-size="18" transform="translate(873.651 229)">𝑍<tspan font-size="13" x="10.2933" y="3">𝑛</tspan><tspan font-size="13" x="11.5933" y="-7">ℓ</tspan><tspan font-size="18" x="25.0667" y="0">∈</tspan><tspan font-size="18" x="41.68" y="0">𝑉</tspan><tspan font-size="13" x="50.08" y="3">𝛿</tspan></text><path d="M960.122 212.567C961.95 213.047 963.359 214.292 964.349 216.302 965.34 218.312 965.835 220.691 965.835 223.439 965.835 226.187 965.34 228.566 964.349 230.576 963.359 232.585 961.95 233.83 960.122 234.311L959.902 233.59C961.32 233.057 962.394 231.895 963.123 230.105 963.853 228.315 964.217 226.096 964.217 223.448 964.217 220.793 963.853 218.57 963.123 216.777 962.394 214.984 961.32 213.821 959.902 213.288ZM940.319 212.567 940.539 213.288C939.121 213.821 938.047 214.984 937.318 216.777 936.588 218.57 936.223 220.793 936.223 223.448 936.223 226.096 936.588 228.315 937.318 230.105 938.047 231.895 939.121 233.057 940.539 233.59L940.319 234.311C938.491 233.83 937.082 232.585 936.091 230.576 935.101 228.566 934.606 226.187 934.606 223.439 934.606 220.691 935.101 218.312 936.091 216.302 937.082 214.292 938.491 213.047 940.319 212.567Z" fill-rule="evenodd"/><text font-family="Cambria Math,Cambria Math_MSFontService,sans-serif" font-weight="400" font-size="18" transform="translate(941.284 229)">𝑧<tspan font-size="13" x="8.38666" y="3">𝑛</tspan><tspan font-size="13" x="9.73334" y="-7">𝑖</tspan><tspan font-size="18" x="26.3066" y="0">|</tspan><tspan font-size="18" x="32.14" y="0">𝑍</tspan><tspan font-size="13" x="42.0067" y="4">1</tspan><tspan font-size="13" x="49.84" y="4">:</tspan><tspan font-size="13" x="53.34" y="4">𝑛</tspan><tspan font-size="13" x="62.2333" y="4">−</tspan><tspan font-size="13" x="72.0667" y="4">1</tspan><tspan font-size="13" x="43.7333" y="-8">ℓ</tspan><tspan font-size="18" x="88.9266" y="0"> </tspan><tspan font-size="18" x="-136.92" y="24">𝑖</tspan><tspan font-size="18" x="-131.087" y="24">𝑛</tspan><tspan font-size="18" x="-120.273" y="24"> </tspan>𝐻𝑢𝑛𝑔𝑎𝑟𝑖𝑎𝑛<tspan font-size="18" x="-25.1267" y="24"> </tspan>𝑎𝑙𝑔𝑜𝑟𝑖𝑡ℎ𝑚<tspan font-size="18" x="-448.312" y="57">𝑜𝑏𝑠𝑒𝑟𝑣𝑎𝑡𝑖𝑜𝑛</tspan><tspan font-size="18" x="-348.332" y="57"> </tspan><tspan font-size="18" x="-449.258" y="79">𝑎𝑠𝑠𝑖𝑔𝑛𝑚𝑒𝑛𝑡𝑠</tspan><tspan font-size="18" x="-162.913" y="112">𝑢𝑝𝑑𝑎𝑡𝑒</tspan><tspan font-size="18" x="-104.339" y="112"> </tspan>𝑎𝑛𝑑<tspan font-size="18" x="-68.4192" y="112">/</tspan>𝑜𝑟<tspan font-size="18" x="-40.5125" y="112"> </tspan>𝑐𝑟𝑒𝑎𝑡𝑒<tspan font-size="18" x="16.8942" y="112"> </tspan>𝑓𝑖𝑙𝑡𝑒𝑟𝑠<tspan font-size="18" x="-162.913" y="135">𝑢𝑠𝑖𝑛𝑔</tspan><tspan font-size="18" x="-116.099" y="135"> </tspan>𝑎𝑠𝑠𝑖𝑔𝑛𝑒𝑑<tspan font-size="18" x="-37.0125" y="135"> </tspan>𝑜𝑏𝑠𝑒𝑟𝑣𝑎𝑡𝑖𝑜𝑛𝑠<tspan font-size="18" x="75.5342" y="135"> </tspan> <tspan font-size="18" x="-825.044" y="-198">𝑝𝑟𝑒𝑣𝑖𝑜𝑢𝑠</tspan><tspan font-size="18" x="-751.831" y="-198"> </tspan><tspan font-size="18" x="-825.044" y="-176">𝑓𝑟𝑎𝑚𝑒</tspan></text><path d="M8.50005 174.167 9.16672 174.167 9.16672 174.833 8.50005 174.833ZM9.83339 174.167 10.5001 174.167 10.5001 174.833 9.83339 174.833ZM11.1667 174.167 11.8334 174.167 11.8334 174.833 11.1667 174.833ZM12.5001 174.167 13.1667 174.167 13.1667 174.833 12.5001 174.833ZM13.8334 174.167 14.5001 174.167 14.5001 174.833 13.8334 174.833ZM15.1667 174.167 15.8334 174.167 15.8334 174.833 15.1667 174.833ZM16.5001 174.167 17.1667 174.167 17.1667 174.833 16.5001 174.833ZM17.8334 174.167 18.5001 174.167 18.5001 174.833 17.8334 174.833ZM19.1667 174.167 19.8334 174.167 19.8334 174.833 19.1667 174.833ZM20.5001 174.167 21.1667 174.167 21.1667 174.833 20.5001 174.833ZM21.8334 174.167 22.5001 174.167 22.5001 174.833 21.8334 174.833ZM23.1667 174.167 23.8334 174.167 23.8334 174.833 23.1667 174.833ZM24.5001 174.167 25.1667 174.167 25.1667 174.833 24.5001 174.833ZM25.8334 174.167 26.5001 174.167 26.5001 174.833 25.8334 174.833ZM27.1667 174.167 27.8334 174.167 27.8334 174.833 27.1667 174.833ZM28.5001 174.167 29.1667 174.167 29.1667 174.833 28.5001 174.833ZM29.8334 174.167 30.5001 174.167 30.5001 174.833 29.8334 174.833ZM31.1667 174.167 31.8334 174.167 31.8334 174.833 31.1667 174.833ZM32.5001 174.167 33.1667 174.167 33.1667 174.833 32.5001 174.833ZM33.8334 174.167 34.5001 174.167 34.5001 174.833 33.8334 174.833ZM35.1667 174.167 35.8334 174.167 35.8334 174.833 35.1667 174.833ZM36.5001 174.167 37.1667 174.167 37.1667 174.833 36.5001 174.833ZM37.8334 174.167 38.5001 174.167 38.5001 174.833 37.8334 174.833ZM39.1667 174.167 39.5546 174.167 39.5546 175.112 38.888 175.112 38.888 174.5 39.2213 174.833 39.1667 174.833ZM39.5546 175.779 39.5546 176.445 38.888 176.445 38.888 175.779ZM39.5546 177.112 39.5546 177.779 38.888 177.779 38.888 177.112ZM39.5546 178.445 39.5546 179.112 38.888 179.112 38.888 178.445ZM39.5546 179.779 39.5546 180.445 38.888 180.445 38.888 179.779ZM39.5546 181.112 39.5546 181.779 38.888 181.779 38.888 181.112ZM39.5546 182.445 39.5546 183.112 38.888 183.112 38.888 182.445ZM39.5546 183.779 39.5546 184.445 38.888 184.445 38.888 183.779ZM39.5546 185.112 39.5546 185.779 38.888 185.779 38.888 185.112ZM39.5546 186.445 39.5546 187.112 38.888 187.112 38.888 186.445ZM39.5546 187.779 39.5546 188.445 38.888 188.445 38.888 187.779ZM39.5546 189.112 39.5546 189.779 38.888 189.779 38.888 189.112ZM39.5546 190.445 39.5546 191.112 38.888 191.112 38.888 190.445ZM39.5546 191.779 39.5546 192.445 38.888 192.445 38.888 191.779ZM39.5546 193.112 39.5546 193.779 38.888 193.779 38.888 193.112ZM39.5546 194.445 39.5546 195.112 38.888 195.112 38.888 194.445ZM39.5546 195.779 39.5546 196.445 38.888 196.445 38.888 195.779ZM39.5546 197.112 39.5546 197.779 38.888 197.779 38.888 197.112ZM39.5546 198.445 39.5546 199.112 38.888 199.112 38.888 198.445ZM39.5546 199.779 39.5546 200.445 38.888 200.445 38.888 199.779ZM39.5546 201.112 39.5546 201.779 38.888 201.779 38.888 201.112ZM39.5546 202.445 39.5546 203.112 38.888 203.112 38.888 202.445ZM39.5546 203.779 39.5546 204.445 38.888 204.445 38.888 203.779ZM39.5546 205.112 39.5546 205.779 38.888 205.779 38.888 205.112ZM39.5546 206.445 39.5546 207.112 38.888 207.112 38.888 206.445ZM39.5546 207.779 39.5546 208.445 38.888 208.445 38.888 207.779ZM39.5546 209.112 39.5546 209.779 38.888 209.779 38.888 209.112ZM39.5546 210.445 39.5546 211.112 38.888 211.112 38.888 210.445ZM39.5546 211.779 39.5546 212.445 38.888 212.445 38.888 211.779ZM39.5546 213.112 39.5546 213.779 38.888 213.779 38.888 213.112ZM39.5546 214.445 39.5546 215.112 38.888 215.112 38.888 214.445ZM39.5546 215.779 39.5546 216.445 38.888 216.445 38.888 215.779ZM39.5546 217.112 39.5546 217.779 38.888 217.779 38.888 217.112ZM39.5546 218.445 39.5546 219.112 38.888 219.112 38.888 218.445ZM39.5546 219.779 39.5546 220.445 38.888 220.445 38.888 219.779ZM39.5546 221.112 39.5546 221.779 38.888 221.779 38.888 221.112ZM39.5546 222.445 39.5546 223.112 38.888 223.112 38.888 222.445ZM39.5546 223.779 39.5546 224.445 38.888 224.445 38.888 223.779ZM39.5546 225.112 39.5546 225.779 38.888 225.779 38.888 225.112ZM39.5546 226.445 39.5546 227.112 38.888 227.112 38.888 226.445ZM39.5546 227.779 39.5546 228.035 39.2213 227.702 39.6318 227.702 39.6318 228.368 38.888 228.368 38.888 227.779ZM40.2985 227.702 40.9651 227.702 40.9651 228.368 40.2985 228.368ZM41.6318 227.702 42.2985 227.702 42.2985 228.368 41.6318 228.368ZM42.9651 227.702 43.6318 227.702 43.6318 228.368 42.9651 228.368ZM44.2985 227.702 44.9651 227.702 44.9651 228.368 44.2985 228.368ZM45.6318 227.702 46.2985 227.702 46.2985 228.368 45.6318 228.368ZM46.9651 227.702 47.6318 227.702 47.6318 228.368 46.9651 228.368ZM48.2985 227.702 48.9651 227.702 48.9651 228.368 48.2985 228.368ZM49.6318 227.702 50.2985 227.702 50.2985 228.368 49.6318 228.368ZM50.9651 227.702 51.6318 227.702 51.6318 228.368 50.9651 228.368ZM52.2985 227.702 52.9651 227.702 52.9651 228.368 52.2985 228.368ZM53.6318 227.702 54.2985 227.702 54.2985 228.368 53.6318 228.368ZM54.9651 227.702 55.6318 227.702 55.6318 228.368 54.9651 228.368ZM56.2985 227.702 56.3762 227.702 56.3762 228.368 56.2985 228.368ZM55.0428 224.035 63.0428 228.035 55.0428 232.035Z"/><text font-family="Cambria Math,Cambria Math_MSFontService,sans-serif" font-weight="400" font-size="18" transform="translate(10.4868 326)">𝑝𝑟𝑒𝑣𝑖𝑜𝑢𝑠<tspan font-size="18" x="73.2133" y="0"> </tspan><tspan font-size="18" x="3.22667" y="22">𝑡𝑟𝑎𝑐𝑘𝑠</tspan></text><path d="M103 332.5C103 310.685 162.77 293 236.5 293 310.23 293 370 310.685 370 332.5 370 354.315 310.23 372 236.5 372 162.77 372 103 354.315 103 332.5Z" fill="#BFBFBF" fill-rule="evenodd"/><text font-family="Cambria Math,Cambria Math_MSFontService,sans-serif" font-weight="400" font-size="18" transform="translate(124.443 328)">𝑢𝑝𝑑𝑎𝑡𝑒<tspan font-size="18" x="58.5733" y="0"> </tspan>𝑜𝑟<tspan font-size="18" x="81.48" y="0"> </tspan>𝑐𝑟𝑒𝑎𝑡𝑒<tspan font-size="18" x="138.887" y="0"> </tspan>𝑡ℎ𝑒<tspan font-size="18" x="169.96" y="0"> </tspan>ℓ<tspan font-size="18" x="187.547" y="0">−</tspan><tspan font-size="18" x="205.3" y="0">𝑡ℎ</tspan><tspan font-size="18" x="223.113" y="0"> </tspan><tspan font-size="18" x="58.2333" y="23">𝑡𝑟𝑎𝑐𝑘</tspan><tspan font-size="18" x="103.607" y="23"> </tspan><tspan font-size="18" x="107.607" y="23">𝑤𝑖𝑡ℎ</tspan><tspan font-size="18" x="144.92" y="23"> </tspan>𝑍<tspan font-size="13" x="159.213" y="27">𝑛</tspan><tspan font-size="13" x="160.513" y="17">ℓ</tspan><tspan font-size="18" x="51.2611" y="81">𝑛𝑒𝑤</tspan><tspan font-size="18" x="85.1344" y="81"> </tspan><tspan font-size="18" x="51.2611" y="103">𝑡𝑟𝑎𝑐𝑘𝑠</tspan></text><path d="M237.833 372.5 237.833 373.167 237.167 373.167 237.167 372.5ZM237.833 373.833 237.833 374.5 237.167 374.5 237.167 373.833ZM237.833 375.167 237.833 375.833 237.167 375.833 237.167 375.167ZM237.833 376.5 237.833 377.167 237.167 377.167 237.167 376.5ZM237.833 377.833 237.833 378.5 237.167 378.5 237.167 377.833ZM237.833 379.167 237.833 379.833 237.167 379.833 237.167 379.167ZM237.833 380.5 237.833 381.167 237.167 381.167 237.167 380.5ZM237.833 381.833 237.833 382.5 237.167 382.5 237.167 381.833ZM237.833 383.167 237.833 383.833 237.167 383.833 237.167 383.167ZM237.833 384.5 237.833 385.167 237.167 385.167 237.167 384.5ZM237.833 385.833 237.833 386.5 237.167 386.5 237.167 385.833ZM237.833 387.167 237.833 387.833 237.167 387.833 237.167 387.167ZM237.833 388.5 237.833 389.167 237.167 389.167 237.167 388.5ZM237.833 389.833 237.833 390.5 237.167 390.5 237.167 389.833ZM237.833 391.167 237.833 391.833 237.167 391.833 237.167 391.167ZM237.833 392.5 237.833 393.167 237.167 393.167 237.167 392.5ZM237.833 393.833 237.833 394.5 237.167 394.5 237.167 393.833ZM237.833 395.167 237.833 395.833 237.167 395.833 237.167 395.167ZM237.833 396.5 237.833 397.167 237.167 397.167 237.167 396.5ZM237.833 397.833 237.833 398.5 237.167 398.5 237.167 397.833ZM237.833 399.167 237.833 399.833 237.167 399.833 237.167 399.167ZM237.833 400.5 237.833 401.167 237.167 401.167 237.167 400.5ZM237.833 401.833 237.833 402.5 237.167 402.5 237.167 401.833ZM237.833 403.167 237.833 403.833 237.167 403.833 237.167 403.167ZM237.833 404.5 237.833 405.167 237.167 405.167 237.167 404.5ZM237.833 405.833 237.833 406.5 237.167 406.5 237.167 405.833ZM237.833 407.167 237.833 407.833 237.167 407.833 237.167 407.167ZM237.833 408.5 237.833 409.167 237.167 409.167 237.167 408.5ZM237.833 409.833 237.833 410.5 237.167 410.5 237.167 409.833ZM237.833 411.167 237.833 411.833 237.167 411.833 237.167 411.167ZM237.833 412.5 237.833 413.167 237.167 413.167 237.167 412.5ZM237.833 413.833 237.833 414.5 237.167 414.5 237.167 413.833ZM237.833 415.167 237.833 415.833 237.167 415.833 237.167 415.167ZM237.833 416.5 237.833 417.167 237.167 417.167 237.167 416.5ZM237.833 417.833 237.833 418.5 237.167 418.5 237.167 417.833ZM237.833 419.167 237.833 419.833 237.167 419.833 237.167 419.167ZM237.833 420.5 237.833 421.167 237.167 421.167 237.167 420.5ZM237.833 421.833 237.833 422.5 237.167 422.5 237.167 421.833ZM237.833 423.167 237.833 423.833 237.167 423.833 237.167 423.167ZM237.833 424.5 237.833 425.167 237.167 425.167 237.167 424.5ZM237.833 425.833 237.833 426.5 237.167 426.5 237.167 425.833ZM237.833 427.167 237.833 427.833 237.167 427.833 237.167 427.167ZM237.833 428.5 237.833 429.167 237.167 429.167 237.167 428.5ZM237.833 429.833 237.833 430.5 237.167 430.5 237.167 429.833ZM237.833 431.167 237.833 431.833 237.167 431.833 237.167 431.167ZM237.833 432.5 237.833 433.167 237.167 433.167 237.167 432.5ZM237.833 433.833 237.833 434.5 237.167 434.5 237.167 433.833ZM237.833 435.167 237.833 435.833 237.167 435.833 237.167 435.167ZM237.833 436.5 237.833 437.167 237.167 437.167 237.167 436.5ZM237.833 437.833 237.833 438.5 237.167 438.5 237.167 437.833ZM237.833 439.167 237.833 439.833 237.167 439.833 237.167 439.167ZM237.833 440.5 237.833 441.167 237.167 441.167 237.167 440.5ZM237.833 441.833 237.833 442.5 237.167 442.5 237.167 441.833ZM237.833 443.167 237.833 443.329 237.167 443.329 237.167 443.167ZM241.5 441.996 237.5 449.996 233.5 441.996Z"/><path d="M1.50005 330.167 2.16672 330.167 2.16672 330.833 1.50005 330.833ZM2.83339 330.167 3.50005 330.167 3.50005 330.833 2.83339 330.833ZM4.16672 330.167 4.83339 330.167 4.83339 330.833 4.16672 330.833ZM5.50005 330.167 6.16672 330.167 6.16672 330.833 5.50005 330.833ZM6.83339 330.167 7.50005 330.167 7.50005 330.833 6.83338 330.833ZM8.16672 330.167 8.83339 330.167 8.83339 330.833 8.16672 330.833ZM9.50005 330.167 10.1667 330.167 10.1667 330.833 9.50005 330.833ZM10.8334 330.167 11.5001 330.167 11.5001 330.833 10.8334 330.833ZM12.1667 330.167 12.8334 330.167 12.8334 330.833 12.1667 330.833ZM13.5001 330.167 14.1667 330.167 14.1667 330.833 13.5001 330.833ZM14.8334 330.167 15.5001 330.167 15.5001 330.833 14.8334 330.833ZM16.1667 330.167 16.8334 330.167 16.8334 330.833 16.1667 330.833ZM17.5001 330.167 18.1667 330.167 18.1667 330.833 17.5001 330.833ZM18.8334 330.167 19.5001 330.167 19.5001 330.833 18.8334 330.833ZM20.1667 330.167 20.8334 330.167 20.8334 330.833 20.1667 330.833ZM21.5001 330.167 22.1667 330.167 22.1667 330.833 21.5001 330.833ZM22.8334 330.167 23.5001 330.167 23.5001 330.833 22.8334 330.833ZM24.1667 330.167 24.8334 330.167 24.8334 330.833 24.1667 330.833ZM25.5001 330.167 26.1667 330.167 26.1667 330.833 25.5001 330.833ZM26.8334 330.167 27.5001 330.167 27.5001 330.833 26.8334 330.833ZM28.1667 330.167 28.8334 330.167 28.8334 330.833 28.1667 330.833ZM29.5001 330.167 30.1667 330.167 30.1667 330.833 29.5001 330.833ZM30.8334 330.167 31.5001 330.167 31.5001 330.833 30.8334 330.833ZM32.1667 330.167 32.8334 330.167 32.8334 330.833 32.1667 330.833ZM33.5 330.167 34.1667 330.167 34.1667 330.833 33.5 330.833ZM34.8334 330.167 35.5001 330.167 35.5001 330.833 34.8334 330.833ZM36.1667 330.167 36.8334 330.167 36.8334 330.833 36.1667 330.833ZM37.5001 330.167 38.1667 330.167 38.1667 330.833 37.5001 330.833ZM38.8334 330.167 39.5001 330.167 39.5001 330.833 38.8334 330.833ZM40.1667 330.167 40.8334 330.167 40.8334 330.833 40.1667 330.833ZM41.5001 330.167 42.1667 330.167 42.1667 330.833 41.5001 330.833ZM42.8334 330.167 43.5001 330.167 43.5001 330.833 42.8334 330.833ZM44.1667 330.167 44.8334 330.167 44.8334 330.833 44.1667 330.833ZM45.5001 330.167 46.1667 330.167 46.1667 330.833 45.5001 330.833ZM46.8334 330.167 47.5001 330.167 47.5001 330.833 46.8334 330.833ZM48.1667 330.167 48.8334 330.167 48.8334 330.833 48.1667 330.833ZM49.5001 330.167 50.1667 330.167 50.1667 330.833 49.5001 330.833ZM50.8334 330.167 51.5001 330.167 51.5001 330.833 50.8334 330.833ZM52.1667 330.167 52.8334 330.167 52.8334 330.833 52.1667 330.833ZM53.5001 330.167 54.1667 330.167 54.1667 330.833 53.5001 330.833ZM54.8334 330.167 55.5001 330.167 55.5001 330.833 54.8334 330.833ZM56.1667 330.167 56.8334 330.167 56.8334 330.833 56.1667 330.833ZM57.5001 330.167 58.1667 330.167 58.1667 330.833 57.5001 330.833ZM58.8334 330.167 59.5001 330.167 59.5001 330.833 58.8334 330.833ZM60.1667 330.167 60.8334 330.167 60.8334 330.833 60.1667 330.833ZM61.5001 330.167 62.1667 330.167 62.1667 330.833 61.5001 330.833ZM62.8334 330.167 63.5 330.167 63.5 330.833 62.8334 330.833ZM64.1667 330.167 64.8334 330.167 64.8334 330.833 64.1667 330.833ZM65.5 330.167 66.1667 330.167 66.1667 330.833 65.5 330.833ZM66.8334 330.167 67.5001 330.167 67.5001 330.833 66.8334 330.833ZM68.1667 330.167 68.8334 330.167 68.8334 330.833 68.1667 330.833ZM69.5001 330.167 70.1667 330.167 70.1667 330.833 69.5001 330.833ZM70.8334 330.167 71.5001 330.167 71.5001 330.833 70.8334 330.833ZM72.1667 330.167 72.8334 330.167 72.8334 330.833 72.1667 330.833ZM73.5001 330.167 74.1667 330.167 74.1667 330.833 73.5001 330.833ZM74.8334 330.167 75.5001 330.167 75.5001 330.833 74.8334 330.833ZM76.1667 330.167 76.8334 330.167 76.8334 330.833 76.1667 330.833ZM77.5001 330.167 78.1667 330.167 78.1667 330.833 77.5001 330.833ZM78.8334 330.167 79.5001 330.167 79.5001 330.833 78.8334 330.833ZM80.1667 330.167 80.8334 330.167 80.8334 330.833 80.1667 330.833ZM81.5001 330.167 82.1667 330.167 82.1667 330.833 81.5001 330.833ZM82.8334 330.167 83.5001 330.167 83.5001 330.833 82.8334 330.833ZM84.1667 330.167 84.8334 330.167 84.8334 330.833 84.1667 330.833ZM85.5001 330.167 86.1667 330.167 86.1667 330.833 85.5001 330.833ZM86.8334 330.167 87.5001 330.167 87.5001 330.833 86.8334 330.833ZM88.1667 330.167 88.8334 330.167 88.8334 330.833 88.1667 330.833ZM89.5001 330.167 90.1667 330.167 90.1667 330.833 89.5001 330.833ZM90.8334 330.167 91.5001 330.167 91.5001 330.833 90.8334 330.833ZM92.1667 330.167 92.8334 330.167 92.8334 330.833 92.1667 330.833ZM93.5001 330.167 94.1667 330.167 94.1667 330.833 93.5001 330.833ZM94.8334 330.167 95.0436 330.167 95.0436 330.833 94.8334 330.833ZM93.7102 326.5 101.71 330.5 93.7102 334.5Z"/><path d="M0-0.333333 0.666667-0.333333 0.666667 0.333333 0 0.333333ZM1.33333-0.333333 2-0.333333 2 0.333333 1.33333 0.333333ZM2.66667-0.333333 3.33333-0.333333 3.33333 0.333333 2.66667 0.333333ZM4-0.333333 4.66667-0.333333 4.66667 0.333333 4 0.333333ZM5.33333-0.333333 6-0.333333 6 0.333333 5.33333 0.333333ZM6.66667-0.333333 7.33333-0.333333 7.33333 0.333333 6.66667 0.333333ZM8-0.333333 8.66667-0.333333 8.66667 0.333333 8 0.333333ZM9.33333-0.333333 10-0.333333 10 0.333333 9.33333 0.333333ZM10.6667-0.333333 11.3333-0.333333 11.3333 0.333333 10.6667 0.333333ZM12-0.333333 12.6667-0.333333 12.6667 0.333333 12 0.333333ZM13.3333-0.333333 14-0.333333 14 0.333333 13.3333 0.333333ZM14.6667-0.333333 15.3333-0.333333 15.3333 0.333333 14.6667 0.333333ZM16-0.333333 16.6667-0.333333 16.6667 0.333333 16 0.333333ZM17.3333-0.333333 18-0.333333 18 0.333333 17.3333 0.333333ZM18.6667-0.333333 19.3333-0.333333 19.3333 0.333333 18.6667 0.333333ZM20-0.333333 20.6667-0.333333 20.6667 0.333333 20 0.333333ZM21.3333-0.333333 22-0.333333 22 0.333333 21.3333 0.333333ZM22.6667-0.333333 23.3333-0.333333 23.3333 0.333333 22.6667 0.333333ZM24-0.333333 24.6667-0.333333 24.6667 0.333333 24 0.333333ZM25.3333-0.333333 26-0.333333 26 0.333333 25.3333 0.333333ZM26.6667-0.333333 27.3333-0.333333 27.3333 0.333333 26.6667 0.333333ZM28-0.333333 28.6667-0.333333 28.6667 0.333333 28 0.333333ZM29.3333-0.333333 30-0.333333 30 0.333333 29.3333 0.333333ZM30.6667-0.333333 31.3333-0.333333 31.3333 0.333333 30.6667 0.333333ZM32-0.333333 32.6667-0.333333 32.6667 0.333333 32 0.333333ZM33.3333-0.333333 34-0.333333 34 0.333333 33.3333 0.333333ZM34.6667-0.333333 35.3333-0.333333 35.3333 0.333333 34.6667 0.333333ZM36-0.333333 36.6667-0.333333 36.6667 0.333333 36 0.333333ZM37.3333-0.333333 38-0.333333 38 0.333333 37.3333 0.333333ZM38.6667-0.333333 39.3333-0.333333 39.3333 0.333333 38.6667 0.333333ZM40-0.333333 40.6667-0.333333 40.6667 0.333333 40 0.333333ZM41.3333-0.333333 42-0.333333 42 0.333333 41.3333 0.333333ZM42.6667-0.333333 43.3333-0.333333 43.3333 0.333333 42.6667 0.333333ZM44-0.333333 44.6667-0.333333 44.6667 0.333333 44 0.333333ZM45.3333-0.333333 46-0.333333 46 0.333333 45.3333 0.333333ZM46.6667-0.333333 47.3333-0.333333 47.3333 0.333333 46.6667 0.333333ZM48-0.333333 48.6667-0.333333 48.6667 0.333333 48 0.333333ZM49.3333-0.333333 50-0.333333 50 0.333333 49.3333 0.333333ZM50.6667-0.333333 51.3333-0.333333 51.3333 0.333333 50.6667 0.333333ZM52-0.333333 52.6667-0.333333 52.6667 0.333333 52 0.333333ZM53.3333-0.333333 54-0.333333 54 0.333333 53.3333 0.333333ZM54.6667-0.333333 55.3333-0.333333 55.3333 0.333333 54.6667 0.333333ZM56-0.333333 56.6667-0.333333 56.6667 0.333333 56 0.333333ZM57.3333-0.333333 58-0.333333 58 0.333333 57.3333 0.333333ZM58.6667-0.333333 59.3333-0.333333 59.3333 0.333333 58.6667 0.333333ZM60-0.333333 60.6667-0.333333 60.6667 0.333333 60 0.333333ZM61.3333-0.333333 62-0.333333 62 0.333333 61.3333 0.333333ZM62.6667-0.333333 63.3333-0.333333 63.3333 0.333333 62.6667 0.333333ZM64-0.333333 64.6667-0.333333 64.6667 0.333333 64 0.333333ZM65.3333-0.333333 66-0.333333 66 0.333333 65.3333 0.333333ZM66.6667-0.333333 67.3333-0.333333 67.3333 0.333333 66.6667 0.333333ZM68-0.333333 68.6667-0.333333 68.6667 0.333333 68 0.333333ZM69.3333-0.333333 70-0.333333 70 0.333333 69.3333 0.333333ZM70.6667-0.333333 71.3333-0.333333 71.3333 0.333333 70.6667 0.333333ZM72-0.333333 72.6667-0.333333 72.6667 0.333333 72 0.333333ZM73.3333-0.333333 74-0.333333 74 0.333333 73.3333 0.333333ZM74.6667-0.333333 75.3333-0.333333 75.3333 0.333333 74.6667 0.333333ZM76-0.333333 76.6667-0.333333 76.6667 0.333333 76 0.333333ZM77.3333-0.333333 78-0.333333 78 0.333333 77.3333 0.333333ZM78.6667-0.333333 79.3333-0.333333 79.3333 0.333333 78.6667 0.333333ZM80-0.333333 80.6667-0.333333 80.6667 0.333333 80 0.333333ZM81.3333-0.333333 82-0.333333 82 0.333333 81.3333 0.333333ZM82.6667-0.333333 83.3333-0.333333 83.3333 0.333333 82.6667 0.333333ZM84-0.333333 84.6667-0.333333 84.6667 0.333333 84 0.333333ZM85.3333-0.333333 86-0.333333 86 0.333333 85.3333 0.333333ZM86.6667-0.333333 87.3333-0.333333 87.3333 0.333333 86.6667 0.333333ZM88-0.333333 88.6667-0.333333 88.6667 0.333333 88 0.333333ZM89.3333-0.333333 90-0.333333 90 0.333333 89.3333 0.333333ZM90.6667-0.333333 91.3333-0.333333 91.3333 0.333333 90.6667 0.333333ZM92-0.333333 92.6667-0.333333 92.6667 0.333333 92 0.333333ZM93.3333-0.333333 94-0.333333 94 0.333333 93.3333 0.333333ZM94.6667-0.333333 95.3333-0.333333 95.3333 0.333333 94.6667 0.333333ZM96-0.333333 96.6667-0.333333 96.6667 0.333333 96 0.333333ZM97.3333-0.333333 98-0.333333 98 0.333333 97.3333 0.333333ZM98.6667-0.333333 99.3333-0.333333 99.3333 0.333333 98.6667 0.333333ZM100-0.333333 100.667-0.333333 100.667 0.333333 100 0.333333ZM101.333-0.333333 102-0.333333 102 0.333333 101.333 0.333333ZM102.667-0.333333 103.333-0.333333 103.333 0.333333 102.667 0.333333ZM104-0.333333 104.667-0.333333 104.667 0.333333 104 0.333333ZM105.333-0.333333 106-0.333333 106 0.333333 105.333 0.333333ZM106.667-0.333333 107.333-0.333333 107.333 0.333333 106.667 0.333333ZM108-0.333333 108.667-0.333333 108.667 0.333333 108 0.333333ZM109.333-0.333333 110-0.333333 110 0.333333 109.333 0.333333ZM110.667-0.333333 111.333-0.333333 111.333 0.333333 110.667 0.333333ZM112-0.333333 112.667-0.333333 112.667 0.333333 112 0.333333ZM113.333-0.333333 114-0.333333 114 0.333333 113.333 0.333333ZM114.667-0.333333 115.333-0.333333 115.333 0.333333 114.667 0.333333ZM116-0.333333 116.667-0.333333 116.667 0.333333 116 0.333333ZM117.333-0.333333 118-0.333333 118 0.333333 117.333 0.333333ZM118.667-0.333333 119.333-0.333333 119.333 0.333333 118.667 0.333333ZM120-0.333333 120.667-0.333333 120.667 0.333333 120 0.333333ZM121.333-0.333333 122-0.333333 122 0.333333 121.333 0.333333ZM122.667-0.333333 123.333-0.333333 123.333 0.333333 122.667 0.333333ZM124-0.333333 124.667-0.333333 124.667 0.333333 124 0.333333ZM125.333-0.333333 126-0.333333 126 0.333333 125.333 0.333333ZM126.667-0.333333 127.333-0.333333 127.333 0.333333 126.667 0.333333ZM128-0.333333 128.667-0.333333 128.667 0.333333 128 0.333333ZM129.333-0.333333 130-0.333333 130 0.333333 129.333 0.333333ZM130.667-0.333333 131.333-0.333333 131.333 0.333333 130.667 0.333333ZM132-0.333333 132.667-0.333333 132.667 0.333333 132 0.333333ZM133.333-0.333333 134-0.333333 134 0.333333 133.333 0.333333ZM134.667-0.333333 135.333-0.333333 135.333 0.333333 134.667 0.333333ZM136-0.333333 136.667-0.333333 136.667 0.333333 136 0.333333ZM137.333-0.333333 138-0.333333 138 0.333333 137.333 0.333333ZM138.667-0.333333 139.333-0.333333 139.333 0.333333 138.667 0.333333ZM140-0.333333 140.667-0.333333 140.667 0.333333 140 0.333333ZM141.333-0.333333 142-0.333333 142 0.333333 141.333 0.333333ZM142.667-0.333333 143.333-0.333333 143.333 0.333333 142.667 0.333333ZM144-0.333333 144.667-0.333333 144.667 0.333333 144 0.333333ZM145.333-0.333333 146-0.333333 146 0.333333 145.333 0.333333ZM146.667-0.333333 147.333-0.333333 147.333 0.333333 146.667 0.333333ZM148-0.333333 148.667-0.333333 148.667 0.333333 148 0.333333ZM149.333-0.333333 150-0.333333 150 0.333333 149.333 0.333333ZM150.667-0.333333 151.333-0.333333 151.333 0.333333 150.667 0.333333ZM152-0.333333 152.667-0.333333 152.667 0.333333 152 0.333333ZM153.333-0.333333 154-0.333333 154 0.333333 153.333 0.333333ZM154.667-0.333333 155.333-0.333333 155.333 0.333333 154.667 0.333333ZM156-0.333333 156.667-0.333333 156.667 0.333333 156 0.333333ZM157.333-0.333333 158-0.333333 158 0.333333 157.333 0.333333ZM158.667-0.333333 159.333-0.333333 159.333 0.333333 158.667 0.333333ZM160-0.333333 160.667-0.333333 160.667 0.333333 160 0.333333ZM161.333-0.333333 162-0.333333 162 0.333333 161.333 0.333333ZM162.667-0.333333 163.333-0.333333 163.333 0.333333 162.667 0.333333ZM164-0.333333 164.667-0.333333 164.667 0.333333 164 0.333333ZM165.333-0.333333 166-0.333333 166 0.333333 165.333 0.333333ZM166.667-0.333333 167.333-0.333333 167.333 0.333333 166.667 0.333333ZM168-0.333333 168.667-0.333333 168.667 0.333333 168 0.333333ZM169.333-0.333333 170-0.333333 170 0.333333 169.333 0.333333ZM170.667-0.333333 171.333-0.333333 171.333 0.333333 170.667 0.333333ZM172-0.333333 172.667-0.333333 172.667 0.333333 172 0.333333ZM173.333-0.333333 174-0.333333 174 0.333333 173.333 0.333333ZM174.667-0.333333 175.333-0.333333 175.333 0.333333 174.667 0.333333ZM176-0.333333 176.667-0.333333 176.667 0.333333 176 0.333333ZM177.56 0.106732 177.56 0.773399 176.893 0.773399 176.893 0.106732ZM177.56 1.44007 177.56 2.10673 176.893 2.10673 176.893 1.44007ZM177.56 2.7734 177.56 3.44007 176.893 3.44007 176.893 2.7734ZM177.56 4.10673 177.56 4.7734 176.893 4.7734 176.893 4.10673ZM177.56 5.44007 177.56 6.10673 176.893 6.10673 176.893 5.44007ZM177.56 6.7734 177.56 7.44007 176.893 7.44007 176.893 6.7734ZM177.56 8.10673 177.56 8.7734 176.893 8.7734 176.893 8.10673ZM177.56 9.44007 177.56 10.1067 176.893 10.1067 176.893 9.44007ZM177.56 10.7734 177.56 11.4401 176.893 11.4401 176.893 10.7734ZM177.56 12.1067 177.56 12.7734 176.893 12.7734 176.893 12.1067ZM177.56 13.4401 177.56 14.1067 176.893 14.1067 176.893 13.4401ZM177.56 14.7734 177.56 15.4401 176.893 15.4401 176.893 14.7734ZM177.56 16.1067 177.56 16.7734 176.893 16.7734 176.893 16.1067ZM177.56 17.4401 177.56 18.1067 176.893 18.1067 176.893 17.4401ZM177.56 18.7734 177.56 19.4401 176.893 19.4401 176.893 18.7734ZM177.56 20.1067 177.56 20.7734 176.893 20.7734 176.893 20.1067ZM177.56 21.4401 177.56 22.1067 176.893 22.1067 176.893 21.4401ZM177.56 22.7734 177.56 23.4401 176.893 23.4401 176.893 22.7734ZM177.56 24.1067 177.56 24.7734 176.893 24.7734 176.893 24.1067ZM177.56 25.4401 177.56 26.1067 176.893 26.1067 176.893 25.4401ZM177.56 26.7734 177.56 27.4401 176.893 27.4401 176.893 26.7734ZM177.56 28.1067 177.56 28.7734 176.893 28.7734 176.893 28.1067ZM177.56 29.4401 177.56 30.1067 176.893 30.1067 176.893 29.4401ZM177.56 30.7734 177.56 31.4401 176.893 31.4401 176.893 30.7734ZM177.56 32.1067 177.56 32.7734 176.893 32.7734 176.893 32.1067ZM177.56 33.4401 177.56 34.1067 176.893 34.1067 176.893 33.4401ZM177.56 34.7734 177.56 35.4401 176.893 35.4401 176.893 34.7734ZM177.56 36.1067 177.56 36.7734 176.893 36.7734 176.893 36.1067ZM177.56 37.4401 177.56 38.1067 176.893 38.1067 176.893 37.4401ZM177.56 38.7734 177.56 39.0805 177.227 38.7472 177.586 38.7472 177.586 39.4139 176.893 39.4139 176.893 38.7734ZM178.253 38.7472 178.919 38.7472 178.919 39.4139 178.253 39.4139ZM179.586 38.7472 180.253 38.7472 180.253 39.4139 179.586 39.4139ZM180.919 38.7472 181.586 38.7472 181.586 39.4139 180.919 39.4139ZM182.253 38.7472 182.919 38.7472 182.919 39.4139 182.253 39.4139ZM183.586 38.7472 184.253 38.7472 184.253 39.4139 183.586 39.4139ZM184.919 38.7472 185.586 38.7472 185.586 39.4139 184.919 39.4139ZM186.253 38.7472 186.919 38.7472 186.919 39.4139 186.253 39.4139ZM187.586 38.7472 188.253 38.7472 188.253 39.4139 187.586 39.4139ZM188.919 38.7472 189.586 38.7472 189.586 39.4139 188.919 39.4139ZM190.253 38.7472 190.919 38.7472 190.919 39.4139 190.253 39.4139ZM191.586 38.7472 192.253 38.7472 192.253 39.4139 191.586 39.4139ZM192.919 38.7472 193.586 38.7472 193.586 39.4139 192.919 39.4139ZM194.253 38.7472 194.919 38.7472 194.919 39.4139 194.253 39.4139ZM195.586 38.7472 196.253 38.7472 196.253 39.4139 195.586 39.4139ZM196.919 38.7472 197.586 38.7472 197.586 39.4139 196.919 39.4139ZM198.253 38.7472 198.919 38.7472 198.919 39.4139 198.253 39.4139ZM199.586 38.7472 200.253 38.7472 200.253 39.4139 199.586 39.4139ZM200.919 38.7472 201.586 38.7472 201.586 39.4139 200.919 39.4139ZM202.253 38.7472 202.919 38.7472 202.919 39.4139 202.253 39.4139ZM203.586 38.7472 204.253 38.7472 204.253 39.4139 203.586 39.4139ZM204.919 38.7472 205.586 38.7472 205.586 39.4139 204.919 39.4139ZM206.253 38.7472 206.919 38.7472 206.919 39.4139 206.253 39.4139ZM207.586 38.7472 208.253 38.7472 208.253 39.4139 207.586 39.4139ZM208.919 38.7472 209.586 38.7472 209.586 39.4139 208.919 39.4139ZM210.253 38.7472 210.919 38.7472 210.919 39.4139 210.253 39.4139ZM211.586 38.7472 212.253 38.7472 212.253 39.4139 211.586 39.4139ZM212.919 38.7472 213.586 38.7472 213.586 39.4139 212.919 39.4139ZM214.253 38.7472 214.919 38.7472 214.919 39.4139 214.253 39.4139ZM215.586 38.7472 216.253 38.7472 216.253 39.4139 215.586 39.4139ZM216.919 38.7472 217.586 38.7472 217.586 39.4139 216.919 39.4139ZM218.253 38.7472 218.919 38.7472 218.919 39.4139 218.253 39.4139ZM219.586 38.7472 220.253 38.7472 220.253 39.4139 219.586 39.4139ZM220.919 38.7472 221.586 38.7472 221.586 39.4139 220.919 39.4139ZM222.253 38.7472 222.919 38.7472 222.919 39.4139 222.253 39.4139ZM223.586 38.7472 224.253 38.7472 224.253 39.4139 223.586 39.4139ZM224.919 38.7472 225.586 38.7472 225.586 39.4139 224.919 39.4139ZM226.253 38.7472 226.919 38.7472 226.919 39.4139 226.253 39.4139ZM227.586 38.7472 228.253 38.7472 228.253 39.4139 227.586 39.4139ZM228.919 38.7472 229.586 38.7472 229.586 39.4139 228.919 39.4139ZM230.253 38.7472 230.919 38.7472 230.919 39.4139 230.253 39.4139ZM231.586 38.7472 232.253 38.7472 232.253 39.4139 231.586 39.4139ZM232.919 38.7472 233.586 38.7472 233.586 39.4139 232.919 39.4139ZM234.253 38.7472 234.919 38.7472 234.919 39.4139 234.253 39.4139ZM235.586 38.7472 236.253 38.7472 236.253 39.4139 235.586 39.4139ZM236.919 38.7472 237.586 38.7472 237.586 39.4139 236.919 39.4139ZM238.253 38.7472 238.919 38.7472 238.919 39.4139 238.253 39.4139ZM239.586 38.7472 240.253 38.7472 240.253 39.4139 239.586 39.4139ZM240.919 38.7472 241.586 38.7472 241.586 39.4139 240.919 39.4139ZM242.253 38.7472 242.454 38.7472 242.454 39.4139 242.253 39.4139ZM241.12 35.0805 249.12 39.0805 241.12 43.0805Z" transform="matrix(-1 1.22465e-16 1.22465e-16 1 616.62 291.5)"/></g></svg>